<svg width="40" height="40" viewBox="0 0 40 40" fill="none" xmlns="http://www.w3.org/2000/svg">
<g id="01 align center">
<path id="Vector" d="M34.166 3.60205H29.2851V0.348145H26.0312V3.60205H13.0156V0.348145H9.76171V3.60205H4.88086C3.58637 3.60205 2.34491 4.11628 1.42957 5.03162C0.514231 5.94696 0 7.18842 0 8.4829L0 39.395H39.0468V8.4829C39.0468 7.18842 38.5326 5.94696 37.6173 5.03162C36.7019 4.11628 35.4605 3.60205 34.166 3.60205ZM3.2539 8.4829C3.2539 8.05141 3.42531 7.63759 3.73043 7.33248C4.03554 7.02736 4.44936 6.85595 4.88086 6.85595H34.166C34.5975 6.85595 35.0113 7.02736 35.3164 7.33248C35.6215 7.63759 35.7929 8.05141 35.7929 8.4829V13.3638H3.2539V8.4829ZM3.2539 36.1411V16.6177H35.7929V36.1411H3.2539Z" fill="#0760A1"/>
<path id="Vector_2" d="M27.6582 21.4987H24.4043V24.7526H27.6582V21.4987Z" fill="#0760A1"/>
<path id="Vector_3" d="M21.1504 21.4987H17.8965V24.7526H21.1504V21.4987Z" fill="#0760A1"/>
<path id="Vector_4" d="M14.6426 21.4987H11.3887V24.7526H14.6426V21.4987Z" fill="#0760A1"/>
<path id="Vector_5" d="M27.6582 28.0066H24.4043V31.2605H27.6582V28.0066Z" fill="#0760A1"/>
<path id="Vector_6" d="M21.1504 28.0066H17.8965V31.2605H21.1504V28.0066Z" fill="#0760A1"/>
<path id="Vector_7" d="M14.6426 28.0066H11.3887V31.2605H14.6426V28.0066Z" fill="#0760A1"/>
</g>
</svg>
