<svg width="40" height="40" viewBox="0 0 40 40" fill="none" xmlns="http://www.w3.org/2000/svg">
<g id="fi-rs-map-marker" clip-path="url(#clip0_296_930)">
<path id="Vector" d="M19.5234 20.1061C20.8105 20.1061 22.0688 19.7244 23.139 19.0093C24.2092 18.2942 25.0433 17.2778 25.5359 16.0887C26.0284 14.8995 26.1573 13.591 25.9062 12.3287C25.6551 11.0663 25.0353 9.90668 24.1251 8.99655C23.215 8.08641 22.0554 7.4666 20.793 7.2155C19.5306 6.96439 18.2221 7.09327 17.033 7.58583C15.8438 8.07839 14.8275 8.91251 14.1124 9.98272C13.3973 11.0529 13.0156 12.3111 13.0156 13.5983C13.0156 15.3242 13.7013 16.9795 14.9217 18.2C16.1422 19.4204 17.7974 20.1061 19.5234 20.1061ZM19.5234 10.3444C20.167 10.3444 20.7961 10.5352 21.3312 10.8927C21.8663 11.2503 22.2834 11.7585 22.5296 12.353C22.7759 12.9476 22.8404 13.6019 22.7148 14.2331C22.5893 14.8643 22.2794 15.4441 21.8243 15.8991C21.3692 16.3542 20.7894 16.6641 20.1582 16.7896C19.527 16.9152 18.8728 16.8508 18.2782 16.6045C17.6836 16.3582 17.1754 15.9411 16.8179 15.406C16.4604 14.8709 16.2695 14.2418 16.2695 13.5983C16.2695 12.7353 16.6123 11.9076 17.2226 11.2974C17.8328 10.6872 18.6604 10.3444 19.5234 10.3444ZM26.0312 36.4244L39.0469 39.5937V22.5188C39.0465 21.4709 38.7089 20.4509 38.0839 19.6096C37.4589 18.7684 36.5798 18.1507 35.5766 17.8479L32.16 16.709C32.4098 15.6942 32.5371 14.6531 32.539 13.608C32.539 10.1561 31.1678 6.84549 28.7269 4.40459C26.286 1.96369 22.9754 0.592407 19.5234 0.592407C16.0715 0.592407 12.7609 1.96369 10.32 4.40459C7.8791 6.84549 6.50781 10.1561 6.50781 13.608C6.51262 14.2685 6.56701 14.9276 6.67051 15.5799C5.93165 15.2853 5.13188 15.1763 4.34115 15.2624C3.55042 15.3484 2.79282 15.627 2.13464 16.0736C1.47645 16.5202 0.937731 17.1212 0.565603 17.8242C0.193476 18.5272 -0.000721082 19.3107 2.01196e-06 20.1061V35.9721L12.988 39.6832L26.0312 36.4244ZM12.6203 6.70649C14.4542 4.89855 16.9283 3.88856 19.5036 3.89655C22.0789 3.90454 24.5467 4.92985 26.3694 6.74914C28.1921 8.56842 29.2221 11.0343 29.2349 13.6095C29.2478 16.1848 28.2425 18.6608 26.438 20.4982L19.5234 27.2647L12.6203 20.5112C10.7897 18.6805 9.76136 16.1977 9.76136 13.6088C9.76136 11.02 10.7897 8.53715 12.6203 6.70649ZM3.25391 20.1061C3.25185 19.8377 3.31721 19.5732 3.44399 19.3367C3.57078 19.1002 3.75492 18.8993 3.97953 18.7524C4.21448 18.5982 4.48515 18.5071 4.76551 18.4877C5.04588 18.4683 5.32652 18.5214 5.58045 18.6418L7.9135 19.4846C8.53769 20.7207 9.35429 21.8497 10.3328 22.8296L19.5234 31.8201L28.7271 22.8182C29.6321 21.9145 30.3995 20.8829 31.0048 19.7563L34.6118 20.9618C34.9515 21.059 35.2504 21.2641 35.4632 21.5462C35.676 21.8283 35.7912 22.172 35.7913 22.5253V35.458L26.0312 33.0729L13.0482 36.3268L3.25391 33.5219V20.1061Z" fill="#0760A1"/>
</g>
<defs>
<clipPath id="clip0_296_930">
<rect width="39.0468" height="39.0468" fill="white" transform="translate(0 0.58252)"/>
</clipPath>
</defs>
</svg>
