<svg width="40" height="40" viewBox="0 0 40 40" fill="none" xmlns="http://www.w3.org/2000/svg">
<g id="fi-rs-money" clip-path="url(#clip0_296_932)">
<path id="Vector" d="M34.166 7.13757H4.88086C3.58637 7.13757 2.34491 7.6518 1.42957 8.56714C0.514231 9.48248 0 10.7239 0 12.0184L0 33.1688H39.0468V12.0184C39.0468 10.7239 38.5326 9.48248 37.6173 8.56714C36.7019 7.6518 35.4605 7.13757 34.166 7.13757ZM35.7929 29.9149H3.2539V12.0184C3.2539 11.5869 3.42531 11.1731 3.73043 10.868C4.03554 10.5629 4.44936 10.3915 4.88086 10.3915H34.166C34.5975 10.3915 35.0113 10.5629 35.3164 10.868C35.6215 11.1731 35.7929 11.5869 35.7929 12.0184V29.9149ZM19.5234 13.6454C18.2363 13.6454 16.9781 14.0271 15.9079 14.7421C14.8377 15.4572 14.0036 16.4736 13.511 17.6628C13.0184 18.8519 12.8896 20.1604 13.1407 21.4228C13.3918 22.6852 14.0116 23.8448 14.9217 24.7549C15.8318 25.665 16.9914 26.2848 18.2538 26.536C19.5162 26.7871 20.8247 26.6582 22.0139 26.1656C23.203 25.6731 24.2194 24.8389 24.9345 23.7687C25.6496 22.6985 26.0312 21.4403 26.0312 20.1532C26.0312 18.4272 25.3456 16.7719 24.1251 15.5515C22.9047 14.331 21.2494 13.6454 19.5234 13.6454ZM19.5234 23.4071C18.8799 23.4071 18.2508 23.2163 17.7157 22.8587C17.1805 22.5012 16.7635 21.993 16.5172 21.3984C16.2709 20.8038 16.2065 20.1496 16.332 19.5184C16.4576 18.8872 16.7675 18.3074 17.2226 17.8523C17.6776 17.3973 18.2574 17.0874 18.8886 16.9618C19.5198 16.8363 20.1741 16.9007 20.7686 17.147C21.3632 17.3933 21.8714 17.8103 22.2289 18.3454C22.5865 18.8805 22.7773 19.5096 22.7773 20.1532C22.7773 21.0162 22.4345 21.8438 21.8243 22.454C21.2141 23.0643 20.3864 23.4071 19.5234 23.4071ZM9.76171 15.2723C9.76171 15.5941 9.66629 15.9087 9.48752 16.1762C9.30875 16.4438 9.05465 16.6523 8.75737 16.7754C8.46008 16.8986 8.13295 16.9308 7.81736 16.868C7.50176 16.8052 7.21186 16.6503 6.98433 16.4228C6.7568 16.1952 6.60184 15.9053 6.53907 15.5897C6.47629 15.2741 6.50851 14.947 6.63165 14.6497C6.75479 14.3524 6.96332 14.0983 7.23087 13.9196C7.49842 13.7408 7.81298 13.6454 8.13476 13.6454C8.56625 13.6454 8.98007 13.8168 9.28519 14.1219C9.5903 14.427 9.76171 14.8408 9.76171 15.2723ZM32.539 15.2723C32.539 15.5941 32.4436 15.9087 32.2648 16.1762C32.0861 16.4438 31.832 16.6523 31.5347 16.7754C31.2374 16.8986 30.9103 16.9308 30.5947 16.868C30.2791 16.8052 29.9892 16.6503 29.7617 16.4228C29.5341 16.1952 29.3792 15.9053 29.3164 15.5897C29.2536 15.2741 29.2858 14.947 29.409 14.6497C29.5321 14.3524 29.7406 14.0983 30.0082 13.9196C30.2757 13.7408 30.5903 13.6454 30.9121 13.6454C31.3436 13.6454 31.7574 13.8168 32.0625 14.1219C32.3676 14.427 32.539 14.8408 32.539 15.2723ZM9.76171 25.034C9.76171 25.3558 9.66629 25.6704 9.48752 25.9379C9.30875 26.2055 9.05465 26.414 8.75737 26.5372C8.46008 26.6603 8.13295 26.6925 7.81736 26.6297C7.50176 26.567 7.21186 26.412 6.98433 26.1845C6.7568 25.9569 6.60184 25.667 6.53907 25.3514C6.47629 25.0358 6.50851 24.7087 6.63165 24.4114C6.75479 24.1141 6.96332 23.8601 7.23087 23.6813C7.49842 23.5025 7.81298 23.4071 8.13476 23.4071C8.56625 23.4071 8.98007 23.5785 9.28519 23.8836C9.5903 24.1887 9.76171 24.6026 9.76171 25.034ZM32.539 25.034C32.539 25.3558 32.4436 25.6704 32.2648 25.9379C32.0861 26.2055 31.832 26.414 31.5347 26.5372C31.2374 26.6603 30.9103 26.6925 30.5947 26.6297C30.2791 26.567 29.9892 26.412 29.7617 26.1845C29.5341 25.9569 29.3792 25.667 29.3164 25.3514C29.2536 25.0358 29.2858 24.7087 29.409 24.4114C29.5321 24.1141 29.7406 23.8601 30.0082 23.6813C30.2757 23.5025 30.5903 23.4071 30.9121 23.4071C31.3436 23.4071 31.7574 23.5785 32.0625 23.8836C32.3676 24.1887 32.539 24.6026 32.539 25.034Z" fill="#0760A1"/>
</g>
<defs>
<clipPath id="clip0_296_932">
<rect width="39.0468" height="39.0468" fill="white" transform="translate(0 0.629395)"/>
</clipPath>
</defs>
</svg>
