<svg width="40" height="40" viewBox="0 0 40 40" fill="none" xmlns="http://www.w3.org/2000/svg">
<g id="fi-rs-dice" clip-path="url(#clip0_296_945)">
<path id="Vector" d="M39.05 39.7263H0V5.55752C0 4.26293 0.514273 3.02137 1.42968 2.10595C2.3451 1.19054 3.58666 0.67627 4.88125 0.67627L34.1688 0.67627C35.4633 0.67627 36.7049 1.19054 37.6203 2.10595C38.5357 3.02137 39.05 4.26293 39.05 5.55752V39.7263ZM3.25417 36.4721H35.7958V5.55752C35.7958 5.12599 35.6244 4.71213 35.3193 4.407C35.0141 4.10186 34.6003 3.93044 34.1688 3.93044H4.88125C4.44972 3.93044 4.03587 4.10186 3.73073 4.407C3.42559 4.71213 3.25417 5.12599 3.25417 5.55752V36.4721ZM17.8979 20.2013C17.8979 20.5231 17.9933 20.8377 18.1721 21.1052C18.3509 21.3728 18.605 21.5813 18.9023 21.7045C19.1997 21.8276 19.5268 21.8599 19.8424 21.7971C20.1581 21.7343 20.448 21.5793 20.6755 21.3518C20.9031 21.1242 21.058 20.8343 21.1208 20.5187C21.1836 20.2031 21.1514 19.8759 21.0282 19.5786C20.9051 19.2813 20.6965 19.0272 20.429 18.8484C20.1614 18.6696 19.8468 18.5742 19.525 18.5742C19.0935 18.5742 18.6796 18.7456 18.3745 19.0507C18.0693 19.3559 17.8979 19.7697 17.8979 20.2013ZM9.7625 12.0659C9.7625 12.3877 9.85793 12.7022 10.0367 12.9698C10.2155 13.2374 10.4696 13.4459 10.7669 13.5691C11.0642 13.6922 11.3914 13.7245 11.707 13.6617C12.0226 13.5989 12.3126 13.4439 12.5401 13.2164C12.7677 12.9888 12.9226 12.6989 12.9854 12.3833C13.0482 12.0677 13.016 11.7405 12.8928 11.4432C12.7697 11.1459 12.5611 10.8918 12.2935 10.713C12.026 10.5342 11.7114 10.4388 11.3896 10.4388C10.9581 10.4388 10.5442 10.6102 10.2391 10.9153C9.93392 11.2205 9.7625 11.6343 9.7625 12.0659ZM26.0333 12.0659C26.0333 12.3877 26.1288 12.7022 26.3075 12.9698C26.4863 13.2374 26.7404 13.4459 27.0378 13.5691C27.3351 13.6922 27.6622 13.7245 27.9778 13.6617C28.2935 13.5989 28.5834 13.4439 28.8109 13.2164C29.0385 12.9888 29.1935 12.6989 29.2562 12.3833C29.319 12.0677 29.2868 11.7405 29.1636 11.4432C29.0405 11.1459 28.8319 10.8918 28.5644 10.713C28.2968 10.5342 27.9822 10.4388 27.6604 10.4388C27.2289 10.4388 26.815 10.6102 26.5099 10.9153C26.2048 11.2205 26.0333 11.6343 26.0333 12.0659ZM9.7625 28.3367C9.7625 28.6585 9.85793 28.9731 10.0367 29.2406C10.2155 29.5082 10.4696 29.7168 10.7669 29.8399C11.0642 29.9631 11.3914 29.9953 11.707 29.9325C12.0226 29.8697 12.3126 29.7148 12.5401 29.4872C12.7677 29.2597 12.9226 28.9697 12.9854 28.6541C13.0482 28.3385 13.016 28.0113 12.8928 27.714C12.7697 27.4167 12.5611 27.1626 12.2935 26.9838C12.026 26.805 11.7114 26.7096 11.3896 26.7096C10.9581 26.7096 10.5442 26.881 10.2391 27.1862C9.93392 27.4913 9.7625 27.9052 9.7625 28.3367ZM26.0333 28.3367C26.0333 28.6585 26.1288 28.9731 26.3075 29.2406C26.4863 29.5082 26.7404 29.7168 27.0378 29.8399C27.3351 29.9631 27.6622 29.9953 27.9778 29.9325C28.2935 29.8697 28.5834 29.7148 28.8109 29.4872C29.0385 29.2597 29.1935 28.9697 29.2562 28.6541C29.319 28.3385 29.2868 28.0113 29.1636 27.714C29.0405 27.4167 28.8319 27.1626 28.5644 26.9838C28.2968 26.805 27.9822 26.7096 27.6604 26.7096C27.2289 26.7096 26.815 26.881 26.5099 27.1862C26.2048 27.4913 26.0333 27.9052 26.0333 28.3367Z" fill="#0760A1"/>
</g>
<defs>
<clipPath id="clip0_296_945">
<rect width="39.05" height="39.05" fill="white" transform="translate(0 0.67627)"/>
</clipPath>
</defs>
</svg>
