<svg width="40" height="40" viewBox="0 0 40 40" fill="none" xmlns="http://www.w3.org/2000/svg">
<g id="01 align center">
<path id="Vector" d="M34.166 0.441895H4.88086C3.58637 0.441895 2.34491 0.956126 1.42957 1.87146C0.514231 2.7868 0 4.02827 0 5.32275L0 39.4887H39.0468V5.32275C39.0468 4.02827 38.5326 2.7868 37.6173 1.87146C36.7019 0.956126 35.4605 0.441895 34.166 0.441895V0.441895ZM11.3887 36.2348V28.1001C11.3887 27.6686 11.5601 27.2548 11.8652 26.9496C12.1703 26.6445 12.5841 26.4731 13.0156 26.4731H26.0312C26.4627 26.4731 26.8765 26.6445 27.1817 26.9496C27.4868 27.2548 27.6582 27.6686 27.6582 28.1001V36.2348H11.3887ZM35.7929 36.2348H30.9121V28.1001C30.9121 26.8056 30.3979 25.5641 29.4825 24.6488C28.5672 23.7334 27.3257 23.2192 26.0312 23.2192H13.0156C11.7211 23.2192 10.4797 23.7334 9.56433 24.6488C8.64899 25.5641 8.13476 26.8056 8.13476 28.1001V36.2348H3.2539V5.32275C3.2539 4.89126 3.42531 4.47743 3.73043 4.17232C4.03554 3.86721 4.44936 3.6958 4.88086 3.6958H34.166C34.5975 3.6958 35.0113 3.86721 35.3164 4.17232C35.6215 4.47743 35.7929 4.89126 35.7929 5.32275V36.2348Z" fill="#0760A1"/>
<path id="Vector_2" d="M19.5234 6.94861C18.2363 6.94861 16.9781 7.33028 15.9079 8.04537C14.8377 8.76046 14.0036 9.77684 13.511 10.966C13.0184 12.1551 12.8896 13.4636 13.1407 14.726C13.3918 15.9884 14.0116 17.148 14.9217 18.0581C15.8319 18.9683 16.9914 19.5881 18.2538 19.8392C19.5162 20.0903 20.8247 19.9614 22.0139 19.4688C23.203 18.9763 24.2194 18.1422 24.9345 17.072C25.6496 16.0018 26.0312 14.7435 26.0312 13.4564C26.0312 11.7304 25.3456 10.0752 24.1252 8.8547C22.9047 7.63425 21.2494 6.94861 19.5234 6.94861ZM19.5234 16.7103C18.8799 16.7103 18.2508 16.5195 17.7157 16.1619C17.1806 15.8044 16.7635 15.2962 16.5172 14.7016C16.2709 14.1071 16.2065 13.4528 16.3321 12.8216C16.4576 12.1904 16.7675 11.6106 17.2226 11.1556C17.6776 10.7005 18.2574 10.3906 18.8886 10.265C19.5198 10.1395 20.1741 10.2039 20.7687 10.4502C21.3632 10.6965 21.8714 11.1135 22.229 11.6486C22.5865 12.1837 22.7773 12.8129 22.7773 13.4564C22.7773 14.3194 22.4345 15.147 21.8243 15.7573C21.2141 16.3675 20.3864 16.7103 19.5234 16.7103Z" fill="#0760A1"/>
</g>
</svg>
