<svg width="40" height="40" viewBox="0 0 40 40" fill="none" xmlns="http://www.w3.org/2000/svg">
<g id="fi-rs-comment-user" clip-path="url(#clip0_296_925)">
<path id="Vector" d="M19.5234 16.6645C18.5581 16.6645 17.6144 16.3783 16.8118 15.842C16.0091 15.3057 15.3835 14.5434 15.0141 13.6515C14.6447 12.7596 14.548 11.7783 14.7364 10.8315C14.9247 9.88468 15.3895 9.015 16.0721 8.3324C16.7547 7.6498 17.6244 7.18494 18.5712 6.99661C19.518 6.80828 20.4994 6.90494 21.3912 7.27436C22.2831 7.64378 23.0454 8.26937 23.5817 9.07202C24.118 9.87468 24.4043 10.8183 24.4043 11.7837C24.4043 13.0782 23.89 14.3196 22.9747 15.235C22.0594 16.1503 20.8179 16.6645 19.5234 16.6645ZM27.6582 23.1723C27.6582 21.8779 27.1439 20.6364 26.2286 19.7211C25.3133 18.8057 24.0718 18.2915 22.7773 18.2915H16.2695C14.975 18.2915 13.7336 18.8057 12.8182 19.7211C11.9029 20.6364 11.3887 21.8779 11.3887 23.1723V26.4263H14.6426V23.1723C14.6426 22.7409 14.814 22.327 15.1191 22.0219C15.4242 21.7168 15.838 21.5454 16.2695 21.5454H22.7773C23.2088 21.5454 23.6226 21.7168 23.9278 22.0219C24.2329 22.327 24.4043 22.7409 24.4043 23.1723V26.4263H27.6582V23.1723ZM19.5381 38.8968C18.7354 38.8973 17.9606 38.6026 17.3612 38.0687L11.2634 32.9341H0V5.27588C0 3.98139 0.514231 2.73993 1.42957 1.82459C2.34491 0.909251 3.58637 0.39502 4.88086 0.39502L34.166 0.39502C35.4605 0.39502 36.7019 0.909251 37.6173 1.82459C38.5326 2.73993 39.0468 3.98139 39.0468 5.27588V32.9341H27.8973L21.6385 38.1078C21.0586 38.6192 20.3112 38.8999 19.5381 38.8968ZM3.2539 29.6802H12.4527L19.4893 35.6104L26.7292 29.6802H35.7929V5.27588C35.7929 4.84438 35.6215 4.43056 35.3164 4.12545C35.0113 3.82033 34.5975 3.64892 34.166 3.64892H4.88086C4.44936 3.64892 4.03554 3.82033 3.73043 4.12545C3.42531 4.43056 3.2539 4.84438 3.2539 5.27588V29.6802Z" fill="#0760A1"/>
</g>
<defs>
<clipPath id="clip0_296_925">
<rect width="39.0468" height="39.0468" fill="white" transform="translate(0 0.39502)"/>
</clipPath>
</defs>
</svg>
