<svg width="592" height="592" fill="none" xmlns="http://www.w3.org/2000/svg"><path d="M48.61 550.9c-1.691-1.442-5.45-6.016-2.542-11.347 1.064-1.95 3.31-2.908 5.354-3.77a21.776 21.776 0 0 0 5.91-3.05c3.18-2.707 4.066-7.21 6.182-10.827 2.364-4.161 6.962-7.269 11.75-7.092 5.484.248 10.058 4.728 12.127 9.834 2.068 5.106 2.15 10.78 2.186 16.288 0 3.05-.106 6.489-2.364 8.546-2.056 1.903-5.165 1.927-7.966 1.844l-29.976-.922" fill="#F5F5F5"/><path d="M105.937 468.479H27.109l14.184 84.667a9.46 9.46 0 0 0 6.738 7.541l.272.071c.236.059.46.142.709.189.526.102 1.06.161 1.596.177v.083l.39-.059H86.15c.645.017 1.29-.027 1.927-.13a9.453 9.453 0 0 0 7.978-8.274L102.9 494.4l.308-2.364 2.706-23.096.024-.461Zm-14.87 54.006h-8.096l.815-24.562h9.373l-2.092 24.562Zm2.92-24.562h7.742l-2.92 24.562h-6.962l2.14-24.562ZM70.843 549.73l-.496-21.347H82l-.709 21.347H70.843Zm-12.6-21.347h11.324l.484 21.347H59.91l-1.667-21.347Zm.875 21.347h-9.456c-.898-5.768-2.069-13.251-3.345-21.347h11.146l1.655 21.347Zm-1.336-27.245-1.903-24.562h13.002l.568 24.562H57.782Zm12.435 0-.567-24.562h13.356l-.84 24.562h-11.95Zm-.71-30.461-.52-22.753h14.977l-.757 22.753h-13.7Zm-.78 0H55.419l-1.76-22.753h14.55l.52 22.753Zm-14.089 0H40.56c-.496-3.144-.969-6.122-1.406-8.794-1.466-9.196-2.021-12.659-2.364-13.959h16.075l1.773 22.753Zm.461 5.91 1.903 24.562H45.36c-.39-2.494-.791-5.011-1.181-7.529-.91-5.804-1.833-11.607-2.684-17.033H55.1Zm-10.531 24.551h-7.6l-4.126-24.562h7.86c1.194 7.541 2.53 16.039 3.866 24.562Zm.922 5.91c1.181 7.387 2.363 14.668 3.344 21.347H41.53l-3.546-21.347h7.505Zm36.642 21.347.709-21.347h7.718l-1.82 21.347H82.13Zm1.914-57.706.757-22.753h10.862l-1.938 22.753h-9.68ZM36.07 469.271c.32 1.643 1.761 10.638 3.688 22.753h-7.92l-3.806-22.753h8.038Zm59.537 80.459H89.52l1.832-21.347h6.773l-2.518 21.347Zm6.761-57.706h-7.92l1.904-22.753h8.652l-2.636 22.753ZM455.219 448.574a40.194 40.194 0 0 0-17.199-5.91c-2.813-.295-5.91-.212-8.144 1.49a1.708 1.708 0 0 0-.839 1.489c.135.426.421.787.804 1.017 6.997 5.342 17.576 6.016 25.378 1.926M454.768 448.078a84.073 84.073 0 0 1-11.099-9.763 28.13 28.13 0 0 1-6.974-12.884 5.22 5.22 0 0 1 .556-4.314c8.853 6.914 15.803 15.862 17.517 26.961Z" fill="#E0E0E0"/><path d="M455.124 448.503a40.018 40.018 0 0 1 .201-14.585 19.7 19.7 0 0 1 7.765-12.033c1.537 3.546.875 7.695-.201 11.43a55.427 55.427 0 0 1-7.706 16.217M463.799 464.094c-5.272.638-9.858 3.416-13.794 6.974a26.109 26.109 0 0 0-7.884 13.545c5.165-.319 9.551-3.959 12.73-8.049 3.18-4.09 5.39-8.57 8.877-12.388M465.691 466.541a34.024 34.024 0 0 1-2.117-16.585 34.024 34.024 0 0 1 6.041-15.589c3.002 10.638 1.903 22.741-3.924 32.174ZM477.155 480.205a24.586 24.586 0 0 0-23.521 13.534 1.8 1.8 0 0 0-.154 1.844 1.764 1.764 0 0 0 1.56.461c4.634-.308 8.735-3.097 12.128-6.265 3.392-3.168 6.347-6.844 10.094-9.598M476.79 479.46a43.729 43.729 0 0 1-.437-24.467c.863-3.156 2.305-6.466 5.224-7.943a.964.964 0 0 1 .792-.142c.235.123.416.33.509.579a14.707 14.707 0 0 1 1.182 7.021 43.803 43.803 0 0 1-1.1 7.092c-.91 4.35-1.406 9.019-3.782 12.766-.564.9-1.07 1.835-1.513 2.801-.461.946-.461 1.288-.875 2.045M507.144 483.975c-2.246-8.557.142-18.912 5.532-25.933.402-.52.922-1.075 1.572-1.016.993.094 1.253 1.418 1.182 2.364a46.847 46.847 0 0 1-8.274 24.538M509.885 485.855a37.817 37.817 0 0 0 30.956-6.301 24.991 24.991 0 0 0-16.76-2.056c-5.591 1.276-10.709 3.782-14.184 8.357M512.189 480.157c5.828-9.456 16.986-15.685 28.097-16.252-1.277 4.527-4.988 8.037-9.185 10.165-4.196 2.128-8.876 3.05-13.486 3.936-1.797.355-4.255.733-5.426 2.151ZM507.688 452.51a80.766 80.766 0 0 0 3.546-16.453c.437-5.615-.367-11.465-3.274-16.276-5.438 10.52-5.993 22.812-.485 33.297M526.031 443.256c6.359-11.549 19.338-20.78 32.458-22.08-5.059 12.612-18.912 22.351-32.458 22.08ZM522.037 445.525c9.456 1.442 17.553 7.505 26.418 11.169a11.809 11.809 0 0 0 5.981 1.182 4.727 4.727 0 0 0 2.919-8.274 12.925 12.925 0 0 0-4.338-2.635c-9.645-4.019-19.999-4.114-30.164-1.679" fill="#E0E0E0"/><path d="M516.539 452.18c2.152.614 2.884 1.725 4.587 3.167a49.412 49.412 0 0 0 20.034 10.296c.769.189 1.773.272 2.152-.426.378-.697-.095-1.335-.52-1.867a27.426 27.426 0 0 0-12.104-8.215c-4.622-1.726-8.629-3.806-14.184-3.357M510.346 412.003a37.929 37.929 0 0 0 29.077 9.893c.484.011.955-.158 1.324-.472.733-.804-.142-2.033-.993-2.695-8.558-6.667-18.912-9.456-29.408-6.726Z" fill="#E0E0E0"/><path d="M517.688 409.32a40.552 40.552 0 0 1 36.287-5.993 28.8 28.8 0 0 1-17.293 7.577 54.778 54.778 0 0 1-18.994-1.596M514.779 390.81c-.839-8.534-.295-15.271-.886-23.841 0-.685-.201-1.513-.84-1.761-.898-.343-1.631.757-1.926 1.667a27.304 27.304 0 0 0 3.652 23.794" fill="#E0E0E0"/><path d="M514.164 391.803a50.116 50.116 0 0 0 14.125-13.747c2.801-3.818 5.153-8.392 4.515-13.073a13.523 13.523 0 0 0-10.2 5.059 28.622 28.622 0 0 0-5.189 10.449c-1.182 3.759-1.927 7.612-3.251 11.312ZM528.04 387.938a113.966 113.966 0 0 0 34.786-20.508c-4.148-1.678-8.912-.674-13.002 1.005a41.204 41.204 0 0 0-21.902 19.408M518.065 396.46c6.418.709 13.002 1.182 19.314.095 6.312-1.088 12.174-3.546 18.025-5.981a2.152 2.152 0 0 0 1.182-.934 1.41 1.41 0 0 0-.437-1.549 3.842 3.842 0 0 0-1.537-.721c-6.359-1.773-13.226-.945-19.491 1.182a91.6 91.6 0 0 0-17.103 7.92M481.4 412.299c-4.374-8.841-4.09-19.16-.308-28.285 2.66 4.066 2.991 9.231 2.494 14.065-.496 4.835-1.95 9.799-2.045 14.657M463.952 403.469a39.467 39.467 0 0 0-29.313 12.482c5.461.863 11.087-.555 16.051-2.979a81.955 81.955 0 0 0 13.7-9.16M452.133 399.533c-5.343-.437-10.497-1.099-15.638.485a18.756 18.756 0 0 0-11.927 10.106 28.369 28.369 0 0 0 14.669-2.766 84.439 84.439 0 0 0 12.896-7.825ZM469.556 399.71c-4.811-3.156-9.752-6.359-15.366-7.671-5.615-1.312-12.092-.343-16.004 3.889 4.538 2.659 10.047 2.979 15.306 2.967 5.26-.012 11.702 0 16.667 1.69" fill="#E0E0E0"/><path d="M469.578 399.97c-8.274-8.084-11.347-22.599-8.037-33.651a51.189 51.189 0 0 1 8.037 33.651ZM492.215 377.075c1.548-3.605 2.636-7.399 4.03-11.075a31.931 31.931 0 0 1 5.757-10.201 15.21 15.21 0 0 1 10.189-5.283 41.016 41.016 0 0 1-19.775 26.618M488.112 381.839c-2.565-3.546-5.532-8.333-9.019-10.969-3.487-2.636-8.014-4.232-12.257-3.215a28.548 28.548 0 0 0 21.276 14.184ZM488.94 377.371a60.95 60.95 0 0 1-4.066-13.156 20.613 20.613 0 0 1 2.057-13.368c4.527 8.546 5.981 17.73 2.234 26.618M492.25 350.847c2.565-8.464 10.319-14.693 18.676-17.553a7.005 7.005 0 0 1 3.286-.485 2.833 2.833 0 0 1 2.364 2.01c.307 1.442-.887 2.73-2.009 3.687a63.508 63.508 0 0 1-22.364 12.341M492.322 343.932c.331-5.461.662-10.993 2.447-16.17 1.784-5.177 5.189-10.023 10.165-12.281.851 5.508-1.584 10.993-4.515 15.732-2.932 4.74-6.466 9.22-8.274 14.515M492.214 347.691c-2.116-6.17-2.364-14.007-6.028-19.385-2.589-3.759-6.714-6.312-8.948-10.295a15.714 15.714 0 0 0 .52 11.69 33.79 33.79 0 0 0 6.844 9.787c2.73 2.919 5.071 5.106 7.612 8.203Z" fill="#E0E0E0"/><path d="M492.25 529.352c-.166 0-.308-41.145-.32-91.9-.011-50.755.119-91.912.284-91.912.166 0 .307 41.145.319 91.912.012 50.767-.118 91.9-.283 91.9Z" fill="#E0E0E0"/><path d="M528.218 406.082a7.84 7.84 0 0 1-1.548.579l-4.256 1.442c-3.546 1.182-8.522 2.99-13.876 5.189-5.355 2.198-10.307 4.113-13.144 6.583a9.626 9.626 0 0 0-2.648 3.546c-.402.958-.484 1.549-.532 1.549-.047 0 0-.154 0-.437.064-.403.167-.799.308-1.182a9.27 9.27 0 0 1 2.576-3.736 23.21 23.21 0 0 1 5.709-3.546 191.929 191.929 0 0 1 7.494-3.286c5.367-2.198 10.331-3.912 13.972-5.035 1.808-.567 3.286-.981 4.314-1.253a9.439 9.439 0 0 1 1.631-.413Z" fill="#E0E0E0"/><path d="M540.002 377.135a2.803 2.803 0 0 1-.437.461l-1.312 1.241-4.929 4.479-16.418 14.586c-6.395 5.698-11.938 11.147-15.768 15.248a170.19 170.19 0 0 0-4.468 4.929l-1.182 1.359c-.272.308-.425.461-.449.45.099-.186.218-.361.355-.521.248-.331.614-.827 1.111-1.442.981-1.182 2.446-2.966 4.338-5.059a205.82 205.82 0 0 1 15.685-15.366 2029.713 2029.713 0 0 1 16.548-14.479l5.059-4.338 1.395-1.182c.283-.26.461-.39.472-.366Z" fill="#E0E0E0"/><path d="M510.051 403.718c-.166-.071 1.182-3.168 2.506-7.092 1.324-3.925 1.986-7.21 2.151-7.175a24.253 24.253 0 0 1-1.584 7.364 46.302 46.302 0 0 1-1.997 4.941 7.122 7.122 0 0 1-1.076 1.962ZM492.322 428.634a7.66 7.66 0 0 1-.981-1.182l-2.565-3.215c-2.128-2.742-5.059-6.536-8.345-10.638-3.286-4.101-6.324-7.86-8.511-10.555l-2.588-3.192a7.1 7.1 0 0 1-.887-1.182 8.32 8.32 0 0 1 1.064 1.076c.662.709 1.596 1.761 2.731 3.073a339.714 339.714 0 0 1 8.652 10.461c3.298 4.149 6.182 7.99 8.274 10.803 1.016 1.407 1.832 2.554 2.364 3.357.303.37.569.77.792 1.194Z" fill="#E0E0E0"/><path d="M484.403 418.504a14.444 14.444 0 0 1-3.298-6.182 17.436 17.436 0 0 1-.745-6.241h.26c-.118.473-.201.733-.248.721-.047-.011-.059-.271 0-.768h.26c.127 2.054.48 4.087 1.052 6.064a47.66 47.66 0 0 0 2.719 6.406ZM474.225 405.703a10.32 10.32 0 0 0-2.305-1.347 15.586 15.586 0 0 0-6.406-.509 39.296 39.296 0 0 0-6.442 1.041c-.871.273-1.76.486-2.66.638a9.146 9.146 0 0 1 2.541-1.04 29.431 29.431 0 0 1 6.513-1.182 13.984 13.984 0 0 1 6.608.709 4.015 4.015 0 0 1 2.151 1.69ZM471.813 402.63c0 .095-1.347-.543-3.546-1.288a36.681 36.681 0 0 0-8.817-1.809 35.915 35.915 0 0 0-8.984.45c-2.281.413-3.664.839-3.688.744-.023-.094.32-.189.934-.402a20.792 20.792 0 0 1 2.672-.756 31.299 31.299 0 0 1 18.025 1.383c.867.341 1.712.736 2.53 1.182.314.121.609.288.874.496ZM492.215 389.474a72.368 72.368 0 0 1-2.576-8.959 70.991 70.991 0 0 1-2.045-9.09 73.722 73.722 0 0 1 2.577 8.948 73.592 73.592 0 0 1 2.044 9.101Z" fill="#E0E0E0"/><path d="M492.381 389.474a43.447 43.447 0 0 0-2.861-5.366 23.489 23.489 0 0 0-4.208-4.338 4.1 4.1 0 0 1 1.632.839 13.519 13.519 0 0 1 3.014 3.109 12.023 12.023 0 0 1 2.423 5.756ZM492.251 507.414c-.059 0-.178-.981-.65-2.73a37.932 37.932 0 0 0-2.743-7.092c-2.848-5.815-8.014-13.179-14.597-20.555-3.251-3.723-6.419-7.234-9.102-10.638a74.48 74.48 0 0 1-6.501-9.385 45.228 45.228 0 0 1-3.286-6.974 30.315 30.315 0 0 1-.65-1.986 2.972 2.972 0 0 1-.165-.709c.059 0 .354.934 1.028 2.612a51.461 51.461 0 0 0 3.44 6.844 77.267 77.267 0 0 0 6.572 9.255c2.683 3.322 5.85 6.809 9.113 10.544 6.595 7.399 11.761 14.857 14.527 20.767a35.176 35.176 0 0 1 2.588 7.246c.162.682.284 1.373.367 2.069.049.241.069.487.059.732ZM524.755 470.713c-.548.353-1.116.673-1.702.958a36.672 36.672 0 0 0-4.421 2.919 51.078 51.078 0 0 0-5.804 5.296c-2.033 2.151-4.137 4.645-6.276 7.316-4.279 5.378-8.274 10.13-10.638 13.924-1.182 1.88-2.104 3.464-2.683 4.575-.274.593-.59 1.166-.946 1.713.035-.167.091-.33.166-.484.118-.296.295-.757.567-1.324a44.945 44.945 0 0 1 2.529-4.728c2.364-3.889 6.301-8.7 10.579-14.066 2.14-2.683 4.267-5.189 6.348-7.328a46.845 46.845 0 0 1 5.91-5.26 31.402 31.402 0 0 1 4.562-2.778c.568-.283 1.029-.461 1.336-.591.307-.13.461-.165.473-.142Z" fill="#E0E0E0"/><path d="M525.416 482.616a22.82 22.82 0 0 1-3.546.532 46.52 46.52 0 0 0-8.534 1.679 25.71 25.71 0 0 0-7.648 4.006c-1.761 1.372-2.588 2.495-2.671 2.424-.083-.071.142-.32.532-.828a12.91 12.91 0 0 1 1.868-1.915 23.24 23.24 0 0 1 7.73-4.255 38.789 38.789 0 0 1 8.676-1.536 20.345 20.345 0 0 1 3.593-.107Z" fill="#E0E0E0"/><path d="M503.976 489.956c-.177-.106 1.442-2.588 2.695-5.91 1.253-3.321 1.466-6.312 1.679-6.276a5.855 5.855 0 0 1-.071 1.927 21.323 21.323 0 0 1-1.04 4.55 22.314 22.314 0 0 1-2.093 4.173 5.747 5.747 0 0 1-1.17 1.536ZM535.274 438.74a2.107 2.107 0 0 1-.579.308l-1.69.768c-.745.319-1.643.721-2.648 1.265-1.004.543-2.21 1.063-3.439 1.796L524.956 444c-.686.39-1.36.851-2.081 1.3-1.442.887-2.896 1.962-4.444 3.074a82.632 82.632 0 0 0-9.279 8.155 84.578 84.578 0 0 0-7.848 9.563c-1.04 1.584-2.08 3.061-2.908 4.539-.425.732-.863 1.43-1.182 2.115l-1.052 2.01c-.697 1.253-1.182 2.458-1.69 3.546-.508 1.087-.863 1.938-1.182 2.695-.319.756-.52 1.264-.709 1.714a3.052 3.052 0 0 1-.296.591c.04-.214.1-.424.177-.627l.615-1.761c.26-.768.591-1.702 1.064-2.754.473-1.052.945-2.269 1.619-3.546l1.029-2.033c.354-.709.792-1.407 1.182-2.151.815-1.49 1.843-3.003 2.884-4.61a80.65 80.65 0 0 1 7.872-9.657 79.36 79.36 0 0 1 9.385-8.191c1.56-1.1 3.038-2.175 4.503-3.038.721-.437 1.407-.898 2.104-1.288l1.998-1.088c1.253-.721 2.458-1.241 3.546-1.737a61.516 61.516 0 0 1 2.707-1.182l1.737-.662c.183-.094.372-.173.567-.237Z" fill="#E0E0E0"/><path d="M509.555 455.974a4.228 4.228 0 0 1 1.418-2.104 8.889 8.889 0 0 1 5.697-2.187 15.634 15.634 0 0 1 5.993 1.182 9.022 9.022 0 0 1 2.27 1.099 13.588 13.588 0 0 1-2.364-.697 18.109 18.109 0 0 0-5.84-.981 9.27 9.27 0 0 0-5.437 1.915 16.248 16.248 0 0 0-1.737 1.773ZM505.713 459.945a21.659 21.659 0 0 0 1.619-5.307 21.163 21.163 0 0 0-.366-5.485c.071 0 .39.532.674 1.525a10.926 10.926 0 0 1-.922 7.896c-.509.945-.946 1.406-1.005 1.371ZM463.834 513.312c.886 15.733 5.626 31.725 12.907 47.895h31.702c6.95-16.016 11.371-31.985 12.151-47.895h-56.76Z" fill="#E0E0E0"/><path d="M515.452 538.761c0 .165-10.437.295-23.309.295-12.872 0-23.309-.13-23.309-.295 0-.166 10.437-.296 23.309-.296 12.872 0 23.309.095 23.309.296ZM514.779 544.47c0 .165-9.775.295-21.843.295-12.069 0-21.891-.142-21.891-.295 0-.154 9.775-.296 21.855-.296s21.879.119 21.879.296ZM477.262 523.643c.394 4.858.394 9.74 0 14.598a90.292 90.292 0 0 1 0-14.598Z" fill="#FAFAFA"/><path d="M494.247 523.643a96.829 96.829 0 0 1 0 15.118 93.062 93.062 0 0 1 0-15.118ZM510.18 523.513c.41 5.134.41 10.292 0 15.425a100.795 100.795 0 0 1 0-15.425Z" fill="#FAFAFA"/><path d="M519.589 523.643c0 .166-12.245.296-27.339.296s-27.34-.13-27.34-.296c0-.165 12.234-.295 27.34-.295s27.339.13 27.339.295ZM552.816 46.174H437.689v103h115.127v-103Z" fill="#FAFAFA"/><path d="M552.816 149.174v-7.435c0-4.834 0-11.903-.071-20.909 0-17.991-.083-43.734-.13-74.656l.26.26H437.76l.307-.307v103l-.272-.272 83.272.13 23.475.071H552.922h-8.262l-23.427.071-83.438.13h-.272V45.678h115.695v.26c0 31.016-.107 56.736-.13 74.821 0 8.983-.06 16.028-.071 20.85v5.473c0 1.253-.201 2.092-.201 2.092Z" fill="#E0E0E0"/><path d="M481.837 64.472c0 .177-6.063.307-13.534.307-7.47 0-13.533-.13-13.533-.307 0-.178 6.051-.308 13.533-.308 7.482 0 13.534.142 13.534.308ZM530.617 72.202c0 .177-16.654.32-37.185.32-20.532 0-37.174-.143-37.174-.32 0-.177 16.642-.307 37.174-.307 20.531 0 37.185.142 37.185.307ZM459.815 85.31h-4.846v4.846h4.846V85.31ZM471.754 85.31h-4.846v4.846h4.846V85.31ZM483.905 85.086h-4.846v4.846h4.846v-4.846ZM495.631 85.31h-4.846v4.846h4.846V85.31ZM507.569 85.31h-4.846v4.846h4.846V85.31ZM519.506 85.31h-4.846v4.846h4.846V85.31Z" fill="#E0E0E0"/><path d="M531.446 85.31H526.6v4.846h4.846V85.31ZM459.815 95.617h-4.846v4.847h4.846v-4.847Z" fill="#EBEBEB"/><path d="M471.754 95.617h-4.846v4.847h4.846v-4.847Z" fill="#E0E0E0"/><path d="M483.692 95.617h-4.846v4.847h4.846v-4.847Z" fill="#EBEBEB"/><path d="M495.631 95.617h-4.846v4.847h4.846v-4.847ZM507.569 95.617h-4.846v4.847h4.846v-4.847ZM519.719 95.393h-4.846v4.846h4.846v-4.846ZM531.446 95.617H526.6v4.847h4.846v-4.847ZM459.815 105.924h-4.846v4.847h4.846v-4.847ZM471.967 105.711h-4.846v4.847h4.846v-4.847ZM483.692 105.924h-4.846v4.847h4.846v-4.847Z" fill="#E0E0E0"/><path d="M495.631 105.924h-4.846v4.847h4.846v-4.847Z" fill="#EBEBEB"/><path d="M507.569 105.924h-4.846v4.847h4.846v-4.847ZM519.506 105.924h-4.846v4.847h4.846v-4.847ZM531.446 105.924H526.6v4.847h4.846v-4.847ZM459.815 116.243h-4.846v4.846h4.846v-4.846ZM471.754 116.243h-4.846v4.846h4.846v-4.846ZM483.692 116.243h-4.846v4.846h4.846v-4.846ZM495.844 116.019h-4.846v4.846h4.846v-4.846ZM507.569 116.243h-4.846v4.846h4.846v-4.846Z" fill="#E0E0E0"/><path d="M519.506 116.243h-4.846v4.846h4.846v-4.846Z" fill="#EBEBEB"/><path d="M531.446 116.243H526.6v4.846h4.846v-4.846ZM459.815 126.55h-4.846v4.846h4.846v-4.846Z" fill="#E0E0E0"/><path d="M471.754 126.55h-4.846v4.846h4.846v-4.846Z" fill="#EBEBEB"/><path d="M483.692 126.55h-4.846v4.846h4.846v-4.846ZM495.631 126.55h-4.846v4.846h4.846v-4.846ZM507.569 126.55h-4.846v4.846h4.846v-4.846ZM519.719 126.326h-4.846v4.846h4.846v-4.846ZM531.446 126.55H526.6v4.846h4.846v-4.846ZM44.318 43.184h75.53v109.512H44.827l-.509-109.512Z" fill="#E0E0E0"/><path d="M38.646 152.176h74.844V43.692H38.646v108.484Z" fill="#fff"/><path d="M114.009 43.184v109.512H38.137V43.184h75.872Zm-1.028 108.484V44.212H39.165v107.456h73.816Z" fill="#E0E0E0"/><path d="M104.199 55.453H47.947v84.986H104.2V55.453Z" fill="#fff"/><path d="M47.948 55.453v6.253c0 4.09 0 10.023.071 17.517 0 14.988.07 36.205.118 61.18l-.248-.248h56.24l-.272.272V55.441l.212.213-40.814-.106H47.925h3.924l11.264-.06 41.063-.106h.213v85.459h-56.76v-.237c0-25.046.095-46.31.13-61.346.13-7.588.13-13.498.13-17.623v-5.792c0-.284.059-.39.059-.39Z" fill="#E0E0E0"/><path d="M38.434 152.188a8.83 8.83 0 0 1 1.182-1.868 117.887 117.887 0 0 1 3.238-4.255 79.407 79.407 0 0 1 3.475-4.078 9.179 9.179 0 0 1 1.584-1.548c.118.095-2.033 2.707-4.633 5.91a60.936 60.936 0 0 1-4.846 5.839ZM38.658 43.704a54.217 54.217 0 0 1 4.858 5.709 51.316 51.316 0 0 1 4.433 6.04 52.456 52.456 0 0 1-4.858-5.71 52.486 52.486 0 0 1-4.433-6.04Z" fill="#E0E0E0"/><path d="m113.502 43.787-9.799 12.092 9.799-12.092Z" fill="#fff"/><path d="M103.703 55.879a56.647 56.647 0 0 1 4.728-6.218 58.697 58.697 0 0 1 5.106-5.91 56.503 56.503 0 0 1-4.728 6.218 55.27 55.27 0 0 1-5.106 5.91ZM113.491 152.188a54.295 54.295 0 0 1-4.799-5.65 51.836 51.836 0 0 1-4.397-5.981 50.813 50.813 0 0 1 4.811 5.65 49.832 49.832 0 0 1 4.385 5.981ZM79.697 99.187h-9.894l-1.182 2.719a6.25 6.25 0 0 0-.579 2.257 1.881 1.881 0 0 0 .958 1.785c.88.318 1.806.486 2.742.497v.685h-9.314v-.756a4.176 4.176 0 0 0 2.482-1.253 16.876 16.876 0 0 0 2.364-4.232L77.32 78.561h.39l10.106 22.978a14.318 14.318 0 0 0 2.364 4.114c.562.46 1.26.722 1.986.744v.733H78.62v-.756h.568a4.219 4.219 0 0 0 2.293-.426 1.101 1.101 0 0 0 .449-.945c0-.261-.04-.52-.118-.769 0-.118-.237-.638-.627-1.548l-1.49-3.499Zm-.698-1.513-4.172-9.645-4.303 9.645H79Z" fill="#E0E0E0"/><path d="M552.757 561.207c0 .166-117.018.308-261.364.308-144.345 0-261.387-.142-261.387-.308 0-.165 117.018-.307 261.387-.307 144.37 0 261.364.118 261.364.307Z" fill="#263238"/><path d="M405.457 53.562H147.793v236.506h257.664V53.562Z" fill="#fff"/><path d="M218.535 226.677c.133 1.795.402 3.577.804 5.331a21.26 21.26 0 0 0 2.447 5.78 21.815 21.815 0 0 0 5.543 6.147 21.548 21.548 0 0 0 9.137 4.03c3.808.698 7.733.368 11.371-.957a20.372 20.372 0 0 0 5.473-2.955 19.222 19.222 0 0 0 4.574-4.598 21.504 21.504 0 0 0 0-25.555 25.417 25.417 0 0 0-2.116-2.506 22.687 22.687 0 0 0-2.458-2.092 20.344 20.344 0 0 0-5.473-2.955 21.757 21.757 0 0 0-26.004 9.22 21.253 21.253 0 0 0-2.447 5.791 35.8 35.8 0 0 0-.804 5.319V225.283c.003-.571.05-1.14.142-1.702.083-.771.226-1.533.426-2.282a20.622 20.622 0 0 1 2.364-5.91 22.121 22.121 0 0 1 14.881-10.496c3.902-.739 7.93-.42 11.667.922a21.097 21.097 0 0 1 5.626 3.014 25.164 25.164 0 0 1 2.518 2.14 24.09 24.09 0 0 1 2.186 2.576 22.067 22.067 0 0 1 0 26.276 24.185 24.185 0 0 1-2.186 2.565 23.778 23.778 0 0 1-2.518 2.14 20.798 20.798 0 0 1-5.626 3.014 22.15 22.15 0 0 1-11.667.922 22.118 22.118 0 0 1-14.881-10.497 20.668 20.668 0 0 1-2.364-5.91c-.2-.752-.343-1.519-.426-2.293a10.746 10.746 0 0 1-.142-1.69v-1.052c0-.272-.047-.343-.047-.343ZM333.935 175.816s0-.248-.071-.744c-.071-.497-.083-1.182-.142-2.187 0-.485-.059-1.017-.095-1.608-.035-.591-.189-1.182-.295-1.926-.106-.745-.225-1.442-.355-2.246a23.942 23.942 0 0 0-.602-2.518 44.166 44.166 0 0 0-5.107-12.222 45.817 45.817 0 0 0-11.678-13.002l-1.986-1.501c-.697-.461-1.43-.874-2.163-1.324-.733-.449-1.442-.933-2.234-1.288l-2.364-1.182-1.182-.567-1.276-.473-2.577-.934c-.875-.295-1.797-.484-2.707-.721a21.276 21.276 0 0 0-2.766-.626 42.374 42.374 0 0 0-5.803-.674c-.993 0-1.986-.13-2.991-.118l-3.026.153c-.508 0-1.028 0-1.536.107l-1.525.236c-1.028.166-2.057.284-3.085.497a50.638 50.638 0 0 0-12.092 4.42c-.969.532-1.891 1.182-2.848 1.702-.473.308-.97.556-1.419.899l-1.359 1.075a52.199 52.199 0 0 0-5.201 4.409 54.26 54.26 0 0 0-4.492 5.319l-1.052 1.407-.922 1.501-.921 1.525c-.326.496-.61 1.018-.852 1.56l-1.595 3.191c-.402 1.182-.828 2.258-1.241 3.393a45.365 45.365 0 0 0 0 28.911l1.241 3.393 1.56 3.309.39.792.461.769.922 1.513.922 1.512 1.052 1.407a52.627 52.627 0 0 0 4.492 5.307 49.358 49.358 0 0 0 5.2 4.421l1.348 1.016c.449.343.945.591 1.418.899.958.567 1.88 1.182 2.849 1.702a49.296 49.296 0 0 0 5.981 2.624 48.08 48.08 0 0 0 6.111 1.797c1.028.212 2.056.33 3.085.496l1.524.236c.509.071 1.029.071 1.537.107l3.026.153c1.005 0 2.009-.082 2.99-.118a42.389 42.389 0 0 0 5.804-.674 21.826 21.826 0 0 0 2.778-.626c.898-.248 1.82-.426 2.695-.721l2.588-.934 1.265-.473 1.182-.567 2.364-1.182c.804-.355 1.501-.875 2.246-1.288.745-.414 1.454-.875 2.151-1.324l1.986-1.478a45.79 45.79 0 0 0 11.678-13.002 44.055 44.055 0 0 0 5.106-12.233c.248-.824.449-1.66.603-2.506.13-.804.248-1.549.355-2.246.106-.697.236-1.336.295-1.927s.071-1.182.095-1.607c.059-.946.106-1.679.142-2.187.035-.508.07-.756.07-.756v.756c0 .497.001 1.241-.07 2.187 0 .484 0 1.028-.071 1.619s-.166 1.241-.26 1.939c-.095.697-.213 1.453-.331 2.257a25.73 25.73 0 0 1-.579 2.53 43.67 43.67 0 0 1-5.048 12.352 45.724 45.724 0 0 1-11.713 13.191l-1.974 1.454c-.698.461-1.442.886-2.163 1.347-.721.461-1.454.946-2.258 1.312l-2.364 1.182-1.182.591-1.288.473-2.601.957c-.886.296-1.808.485-2.73.733-.92.272-1.856.489-2.801.65a45.326 45.326 0 0 1-5.91.698c-1.005 0-2.01.13-3.026.118l-3.074-.154c-.508 0-1.028 0-1.548-.094l-1.548-.237c-1.029-.165-2.081-.283-3.121-.496a50 50 0 0 1-6.194-1.809 48.731 48.731 0 0 1-6.051-2.647c-.981-.532-1.927-1.182-2.896-1.726-.473-.296-.981-.556-1.43-.898l-1.372-1.029a51.98 51.98 0 0 1-5.271-4.468 52.458 52.458 0 0 1-4.551-5.378l-1.064-1.43-.945-1.525-.934-1.536-.461-.769-.402-.815c-.52-1.088-1.052-2.175-1.572-3.274-.52-1.1-.839-2.282-1.265-3.44a45.896 45.896 0 0 1 0-29.29l1.265-3.44 1.572-3.274c.249-.55.542-1.08.875-1.584l.933-1.536.934-1.525 1.064-1.43a51.074 51.074 0 0 1 4.562-5.367 51.953 51.953 0 0 1 5.26-4.467l1.372-1.029c.449-.343.957-.603 1.43-.898.981-.579 1.915-1.182 2.896-1.726a47.124 47.124 0 0 1 6.051-2.648 49.823 49.823 0 0 1 6.194-1.808c1.04-.213 2.092-.331 3.121-.496l1.548-.237c.52-.071 1.04 0 1.548-.094l3.074-.154c1.016 0 2.021.083 3.026.118 1.983.103 3.957.336 5.91.698.945.159 1.88.372 2.801.638.91.26 1.844.449 2.73.744l2.601.958 1.288.473 1.182.591 2.364 1.182c.804.366 1.513.886 2.258 1.312.744.425 1.477.886 2.175 1.347l1.997 1.501a46.092 46.092 0 0 1 11.714 13.191 43.577 43.577 0 0 1 5.047 12.341c.201.898.485 1.725.579 2.541.095.815.225 1.548.331 2.257.106.71.201 1.336.26 1.939s0 1.182.071 1.607c0 .962.024 1.695.071 2.199.012.449.012.697.012.697Z" fill="#E0E0E0"/><path d="M393.684 175.686s0-.579-.083-1.714 0-2.825-.224-5.035a103.77 103.77 0 0 0-7.352-32.257 100.632 100.632 0 0 0-7.352-14.881 106.881 106.881 0 0 0-26.844-30.035 105.192 105.192 0 0 0-44.443-19.716 106.876 106.876 0 0 0-41.37.485 111.83 111.83 0 0 0-14.101 4.019 105.779 105.779 0 0 0-49.053 36.783 103.416 103.416 0 0 0-8.593 13.842c-1.3 2.364-2.364 4.94-3.546 7.458s-2.069 5.142-2.908 7.801a103.857 103.857 0 0 0-4.019 16.312 115.88 115.88 0 0 0-1.359 16.938c.037 5.692.499 11.374 1.383 16.997a102.598 102.598 0 0 0 4.007 16.324c.839 2.659 1.903 5.224 2.919 7.801 1.017 2.577 2.234 5.035 3.546 7.458a103.96 103.96 0 0 0 8.605 13.841 105.723 105.723 0 0 0 49.053 36.796 112.046 112.046 0 0 0 14.102 4.031 107.408 107.408 0 0 0 41.37.472 105.345 105.345 0 0 0 44.443-19.715 106.629 106.629 0 0 0 26.831-29.999 101.85 101.85 0 0 0 7.364-14.882 104.66 104.66 0 0 0 7.352-32.351c.189-2.199.154-3.889.213-5.024.059-1.134.083-1.714.083-1.714v1.714c0 1.135 0 2.825-.166 5.036a105.125 105.125 0 0 1-14.539 47.398 107.082 107.082 0 0 1-26.866 30.176 105.658 105.658 0 0 1-44.609 19.87 107.792 107.792 0 0 1-41.571-.438 115.75 115.75 0 0 1-14.184-4.03 106.383 106.383 0 0 1-58.001-50.897c-1.3-2.435-2.364-4.976-3.546-7.506-1.182-2.529-2.08-5.177-2.931-7.848a103.547 103.547 0 0 1-4.043-16.418 117.323 117.323 0 0 1-1.43-17.092c.042-5.716.509-11.421 1.395-17.068a103.898 103.898 0 0 1 4.042-16.418c.84-2.671 1.903-5.248 2.932-7.837 1.028-2.588 2.257-5.071 3.546-7.494a105.203 105.203 0 0 1 8.652-13.924 106.3 106.3 0 0 1 49.337-36.96 111.667 111.667 0 0 1 14.184-4.031 107.75 107.75 0 0 1 41.559-.438 105.456 105.456 0 0 1 44.609 19.858 107.151 107.151 0 0 1 26.878 30.176 102.136 102.136 0 0 1 7.329 14.953 103.333 103.333 0 0 1 7.21 32.457c.177 2.199.118 3.901.165 5.036.048 1.134.024 1.69.024 1.69Z" fill="#E0E0E0"/><path d="M363.401 249.798c-.118.118-33.711-33.262-74.998-74.561-41.287-41.299-74.703-74.891-74.584-75.01.118-.118 33.698 33.262 75.009 74.573 41.311 41.311 74.655 74.879 74.573 74.998Z" fill="#E0E0E0"/><path d="M362.692 100.936c.118.119-33.274 33.699-74.561 74.998-41.287 41.299-74.891 74.691-75.01 74.573-.118-.119 33.262-33.699 74.573-75.01 41.311-41.311 74.879-74.691 74.998-74.561Z" fill="#E0E0E0"/><path d="M288.604 69.306c.177 0 .319 47.363.319 105.765 0 58.403-.142 105.766-.307 105.766-.166 0-.307-47.351-.307-105.766 0-58.414.13-105.765.295-105.765Z" fill="#E0E0E0"/><path d="M182.852 175.686c0-.165 47.362-.307 105.753-.307s105.777.13 105.777.295c0 .166-47.351.32-105.777.32s-105.753-.107-105.753-.308Z" fill="#E0E0E0"/><path d="M285.662 70.83v30.106c0 3.794 5.91 3.806 5.91 0V70.831c0-3.806-5.91-3.806-5.91 0Z" fill="#0760A1"/><path d="M321.808 176.088s0-.177-.059-.544c-.06-.366-.06-.922-.107-1.607 0-.367 0-.757-.083-1.182-.082-.426-.141-.91-.212-1.418a23.76 23.76 0 0 0-.721-3.546 32.49 32.49 0 0 0-3.771-9.007 33.735 33.735 0 0 0-40.519-14.385 34.279 34.279 0 0 0-4.397 1.938c-.709.378-1.383.839-2.092 1.253a18.33 18.33 0 0 0-2.033 1.395 39.68 39.68 0 0 0-3.818 3.25 39.209 39.209 0 0 0-3.31 3.913 32.787 32.787 0 0 0-4.81 9.279 33.348 33.348 0 0 0 0 21.276 32.745 32.745 0 0 0 4.81 9.29 40.622 40.622 0 0 0 3.298 3.901 38.032 38.032 0 0 0 3.83 3.25c.642.518 1.322.988 2.033 1.407.697.413 1.383.863 2.092 1.253 1.421.743 2.89 1.39 4.397 1.938a33.91 33.91 0 0 0 17.73 1.478 33.991 33.991 0 0 0 22.789-15.804 32.315 32.315 0 0 0 3.771-8.995c.329-1.162.57-2.347.721-3.546.071-.52.165-.981.212-1.418.048-.437.06-.828.083-1.182 0-.686.083-1.182.107-1.608.023-.425.059-.555.059-.555v.555c0 .367 0 .934-.059 1.62v1.182c0 .425-.119.91-.19 1.43a23.584 23.584 0 0 1-.661 3.546 31.918 31.918 0 0 1-3.712 9.113 34.095 34.095 0 0 1-23.014 16.194c-1.427.277-2.873.45-4.326.52-.732 0-1.477.094-2.234.094l-2.269-.118c-.765-.021-1.528-.1-2.281-.236-.769-.13-1.537-.213-2.364-.379a35.645 35.645 0 0 1-4.575-1.324 37.12 37.12 0 0 1-4.479-1.962c-.721-.39-1.419-.839-2.14-1.264a18.468 18.468 0 0 1-2.068-1.431 36.175 36.175 0 0 1-3.889-3.297 37.63 37.63 0 0 1-3.369-3.972 33.097 33.097 0 0 1-4.905-9.456 33.908 33.908 0 0 1 0-21.642 32.92 32.92 0 0 1 4.905-9.456 31.803 31.803 0 0 1 7.258-7.281 18.835 18.835 0 0 1 2.08-1.419c.709-.425 1.407-.875 2.128-1.265a36.86 36.86 0 0 1 9.101-3.274c.768-.165 1.537-.248 2.364-.378a13.533 13.533 0 0 1 2.281-.236l2.27-.119c.756 0 1.501.071 2.234.095 1.452.07 2.898.244 4.326.52a34.108 34.108 0 0 1 23.013 16.193 31.73 31.73 0 0 1 3.712 9.114c.311 1.163.532 2.349.662 3.546.071.52.153.993.189 1.43.035.437 0 .827 0 1.182 0 .685 0 1.182.059 1.619.059.438-.047.532-.047.532Z" fill="#E0E0E0"/><path d="M264.055 283.78a3.463 3.463 0 0 1 0-.839c0-.627-.001-1.431-.06-2.435 0-2.175-.059-5.213-.094-8.936 0-7.612 0-18.002-.095-29.479-.094-11.478.071-21.879.095-29.55 0-3.724.071-6.75.094-8.936 0-1.005 0-1.809.06-2.364a3.67 3.67 0 0 1 0-.851c.052.28.072.566.059.851v2.364c0 2.186.059 5.212.094 8.936 0 7.612.059 18.001.095 29.55.035 11.548-.071 21.867-.095 29.479 0 3.723-.071 6.761-.094 8.936v2.435c.013.281-.007.562-.059.839ZM276.099 283.78a4.105 4.105 0 0 1 0-.768c0-.568 0-1.301-.059-2.211 0-1.997-.059-4.728-.094-8.12 0-6.927 0-16.359-.095-26.784-.094-10.425.071-19.87.095-26.796 0-3.369.071-6.123.094-8.121 0-.898 0-1.631.059-2.198a3.942 3.942 0 0 1 0-.768c.053.252.073.51.06.768v2.198c0 1.998.059 4.728.106 8.121 0 6.926 0 16.371.083 26.796.082 10.425-.059 19.857-.083 26.784 0 3.369-.083 6.123-.106 8.12v2.211c.012.257-.008.515-.06.768ZM311.476 283.78a3.53 3.53 0 0 1-.059-.84c0-.614 0-1.43-.059-2.434 0-2.175-.059-5.201-.106-8.925 0-7.588 0-17.966-.083-29.431-.083-11.466.071-21.856.083-29.456 0-3.711.082-6.737.106-8.924 0-1.005 0-1.808.059-2.364a3.559 3.559 0 0 1 .059-.898c.026.279.026.56 0 .839 0 .615 0 1.418.059 2.364 0 2.187.059 5.213.095 8.924 0 7.6 0 17.978.094 29.456.095 11.477-.07 21.843-.094 29.431 0 3.724-.071 6.75-.095 8.924 0 1.005 0 1.821-.059 2.435.03.299.03.6 0 .899ZM300.39 283.78a3.886 3.886 0 0 1-.059-.769v-2.222c0-1.997-.059-4.728-.095-8.155 0-6.951-.059-16.43-.094-26.903-.036-10.472.071-19.952.094-26.902 0-3.392.071-6.158.095-8.156v-2.222a3.87 3.87 0 0 1 .059-.768c.033.255.033.513 0 .768 0 .579 0 1.312.059 2.222 0 1.998.059 4.728.107 8.156 0 6.95 0 16.43.082 26.902.083 10.473 0 19.952-.082 26.903 0 3.392-.083 6.158-.107 8.155 0 .91 0 1.655-.059 2.222.033.255.033.514 0 .769Z" fill="#E0E0E0"/><path d="M259.232 163.866a31.12 31.12 0 0 1 8.014-10.874c.426-.39.851-.757 1.289-1.123l.602-.485c.769-.626-.425.296.367-.284a40.72 40.72 0 0 1 2.718-1.832 29.165 29.165 0 0 1 2.743-1.489l.744-.331c-.567.236.225-.095.284-.106.476-.191.961-.356 1.454-.497a3.023 3.023 0 0 0 2.068-3.64 3.002 3.002 0 0 0-3.64-2.069 34.485 34.485 0 0 0-12.577 7.47 36.52 36.52 0 0 0-9.172 12.281 3.052 3.052 0 0 0 1.064 4.043 2.978 2.978 0 0 0 4.042-1.064Z" fill="#0760A1"/><path d="M287.836 126.751c-20.779.083-40.105 13.073-46.831 32.919-3.546 10.555-3.865 22.871.426 33.249a53.042 53.042 0 0 0 7.328 12.258 61.612 61.612 0 0 0 4.858 5.65 36.118 36.118 0 0 1 5.91 6.938 13.777 13.777 0 0 1 1.903 6.3c.119 2.671-.177 5.331-.212 7.99v8.57a2.988 2.988 0 0 0 2.955 2.955h47.28a2.991 2.991 0 0 0 2.955-2.955v-.804c0-3.806-5.91-3.818-5.91 0v.804l2.955-2.955h-47.28l2.955 2.955v-8.002c0-4.031.579-8.038-.213-12.033-1.111-5.674-5.154-10-9.09-13.948a54.504 54.504 0 0 1-8.132-10.46c-10.39-17.187-5.343-40.732 9.882-53.439a44.83 44.83 0 0 1 28.261-10.082c3.794 0 3.806-5.91 0-5.91Z" fill="#0760A1"/><path d="M330.011 169.185a48.25 48.25 0 0 1-.898 19.597 40.93 40.93 0 0 1-6.998 13.723c-2.624 3.464-6.489 6.832-9.456 10.414-3.321 4.054-4.054 8.723-4.184 13.841-.106 4.35 0 8.711 0 13.002 0 3.794 5.91 3.806 5.91 0v-10.638c0-1.466 0-2.92.118-4.385.02-1.142.155-2.278.402-3.393.103-.496.238-.986.402-1.465.071-.213.142-.426.225-.639-.237.603.094-.201.13-.26.434-.87.974-1.684 1.607-2.423 3.286-3.77 6.927-7.092 9.953-11.146a45.597 45.597 0 0 0 7.387-14.361c2.269-7.648 2.21-15.65 1.099-23.487a2.952 2.952 0 0 0-3.628-2.056 3.024 3.024 0 0 0-2.069 3.628v.048Z" fill="#0760A1"/><path d="m357.018 183.57-6.465 4.267-1.844-2.73 6.442-4.244 1.867 2.707ZM341.878 167.944l5.745 7.884a1.597 1.597 0 0 1 1.97 1.945 1.598 1.598 0 0 1-2.674.718 1.594 1.594 0 0 1-.171-2.049l-5.012-8.144.863 12.163 5.532 3.948 6.265-4.113-1.253-6.348-11.265-6.004ZM365.294 181.915l-1.809 2.53 2.967-.509v1.348l-2.967-.142 1.974 2.293-1.182.756-1.276-2.718-1.182 2.837-1.182-.674 1.784-2.494-2.907.485v-1.348l2.919.272-1.95-2.364 1.182-.733 1.324 2.695 1.111-2.801 1.194.567ZM336.097 243.178v-8.463c0-5.508 0-13.534-.071-23.722 0-20.354-.083-49.325-.13-83.84l.271.272h-97.314l.308-.307v116.025l-.26-.26 70.577.142 19.739.059h7.01-6.903l-19.681.071-70.742.13h-.26V126.692h97.905v.284l-.142 84.017c0 10.165 0 18.167-.071 23.64v7.824c0 .414-.236.721-.236.721Z" fill="#263238"/><path d="M240.674 124.966h-3.723v3.724h3.723v-3.724Z" fill="#fff"/><path d="M240.686 128.702a26.849 26.849 0 0 1-.271-3.736l.271.272h-3.735c0 .071.591-.579.308-.307v3.7l-.249-.225c1.25.004 2.498.095 3.736.272a20.768 20.768 0 0 1-3.736.26h-.26v-3.972c-.271.284.379-.366.308-.307h4.007v.26a20.8 20.8 0 0 1-.379 3.783Z" fill="#263238"/><path d="M240.674 179.599h-3.723v3.723h3.723v-3.723Z" fill="#fff"/><path d="M240.686 183.322a26.987 26.987 0 0 1-.272-3.724l.272.26h-3.735l.307-.307v3.7l-.271-.272a26.99 26.99 0 0 1 3.735.272 20.948 20.948 0 0 1-3.735.26h-.26v-3.972l.307-.307h4.007v.26a20.678 20.678 0 0 1-.355 3.83Z" fill="#263238"/><path d="M240.674 241.098h-3.723v3.723h3.723v-3.723Z" fill="#fff"/><path d="M240.686 244.821a26.502 26.502 0 0 1-.272-3.723l.272.272h-3.735c0 .071.591-.58.307-.308V244.774l-.271-.26c1.249.01 2.496.097 3.735.26a20.06 20.06 0 0 1-3.735.272h-.26v-3.996l.307-.307h4.007v.26a20.381 20.381 0 0 1-.355 3.818Z" fill="#263238"/><path d="M289.762 242.162h-3.723v3.723h3.723v-3.723Z" fill="#fff"/><path d="M289.775 245.897a26.836 26.836 0 0 1-.272-3.735l.272.272h-3.736c0 .07.591-.58.308-.308v3.7l-.272-.272c1.25.004 2.498.095 3.735.272a20.764 20.764 0 0 1-3.735.26h-.26v-3.972c-.272.284.378-.366.307-.307h4.007v.26a20.85 20.85 0 0 1-.354 3.83Z" fill="#263238"/><path d="M337.954 241.098h-3.724v3.723h3.724v-3.723Z" fill="#fff"/><path d="M337.952 244.821a30.296 30.296 0 0 1-.26-3.723l.26.272h-3.723l.307-.308V244.774l-.271-.26a29.92 29.92 0 0 1 3.723.26 19.6 19.6 0 0 1-3.723.272h-.331v-3.996l.307-.307h4.007v.26a19.467 19.467 0 0 1-.296 3.818Z" fill="#263238"/><path d="M290.022 124.966h-3.723v3.724h3.723v-3.724Z" fill="#fff"/><path d="M290.023 128.701a28.096 28.096 0 0 1-.261-3.735l.261.272h-3.724l.308-.307v3.7l-.272-.272c1.246.002 2.49.093 3.723.272-1.231.2-2.477.287-3.723.26h-.26v-3.972c-.272.284.378-.366.307-.307h3.995v.26a19.915 19.915 0 0 1-.354 3.829Z" fill="#263238"/><path d="M338.296 125.286h-3.724v3.723h3.724v-3.723Z" fill="#fff"/><path d="M338.295 129.009a27.776 27.776 0 0 1-.26-3.724l.26.26h-3.723l.307-.307V128.95l-.26-.261c1.246.003 2.49.09 3.723.261a19.669 19.669 0 0 1-3.723.271h-.26V125.238c-.284.272.367-.378.307-.307H338.662v.26a19.58 19.58 0 0 1-.367 3.818Z" fill="#263238"/><path d="M183.819 178.677h28.688c3.806 0 3.817-5.91 0-5.91h-28.688c-3.806 0-3.806 5.91 0 5.91ZM216.349 251.452l20.319-20.212c2.695-2.695-1.49-6.879-4.184-4.184l-20.295 20.212c-2.707 2.695 1.477 6.867 4.172 4.184h-.012ZM264.976 257.398h45.388c3.806 0 3.806-5.91 0-5.91h-45.388c-3.806 0-3.806 5.91 0 5.91ZM276.501 268.343h23.486c3.806 0 3.818-5.91 0-5.91h-23.486c-3.806 0-3.806 5.91 0 5.91ZM212.307 103.016l20.401 20.177c2.719 2.672 6.891-1.501 4.185-4.184l-20.402-20.153c-2.718-2.683-6.891 1.501-4.184 4.172v-.012Z" fill="#0760A1"/><path d="M333.012 189.066c-.165 0-.307-10.295-.307-22.99 0-12.694.142-22.99.307-22.99.166 0 .308 10.296.308 22.99 0 12.695-.13 22.99-.308 22.99Z" fill="#263238"/><path d="M333.544 168.145h-1.052v1.052h1.052v-1.052Z" fill="#fff"/><path d="M333.934 189.279a1.029 1.029 0 1 1-2.057-.003 1.029 1.029 0 0 1 2.057.003ZM333.934 143.984a1.04 1.04 0 0 1-.179.569 1.035 1.035 0 0 1-1.058.427 1.033 1.033 0 0 1-.801-.811 1.03 1.03 0 0 1 1.009-1.225 1.024 1.024 0 0 1 .732.306 1.03 1.03 0 0 1 .297.734Z" fill="#263238"/><path d="M158.987 52.285h-11.194v238.599h11.194V52.285Z" fill="#455A64"/><path d="M405.457 44.2H147.793v10.083h257.664V44.2Z" fill="#263238"/><path d="M405.457 54.271H147.793v9.657h257.664V54.27ZM155.381 48.87a1.725 1.725 0 1 1-1.714-1.726 1.717 1.717 0 0 1 1.714 1.725ZM160.854 48.87a1.723 1.723 0 0 1-1.066 1.594 1.725 1.725 0 1 1 1.066-1.595ZM166.315 48.87a1.723 1.723 0 0 1-1.066 1.594 1.725 1.725 0 1 1-.66-3.32 1.711 1.711 0 0 1 1.598 1.063c.086.21.129.435.128.662Z" fill="#455A64"/><path d="M165.983 63.857a47.266 47.266 0 0 1-7.694.307 47.55 47.55 0 0 1-7.707-.307 49.22 49.22 0 0 1 7.707-.307 48.99 48.99 0 0 1 7.694.307Z" fill="#263238"/><path d="M158.998 72.131a45.658 45.658 0 0 1-.307-7.411 45.689 45.689 0 0 1 .307-7.423 44.16 44.16 0 0 1 .308 7.423 44.022 44.022 0 0 1-.308 7.411ZM168.454 63.703c-.178 0-.308-.898-.308-2.009 0-1.111.13-2.021.308-2.021.177 0 .307.91.307 2.021 0 1.111-.142 2.01-.307 2.01ZM179.33 63.916a9.839 9.839 0 0 1-.308-3.416 9.906 9.906 0 0 1 .308-3.428 9.599 9.599 0 0 1 .307 3.428 9.533 9.533 0 0 1-.307 3.416ZM189.731 63.703c-.165 0-.307-.898-.307-2.009 0-1.111.142-2.021.307-2.021.166 0 .307.91.307 2.021 0 1.111-.2 2.01-.307 2.01ZM200.546 63.916a9.862 9.862 0 0 1-.307-3.416 9.93 9.93 0 0 1 .307-3.428 9.576 9.576 0 0 1 .308 3.428 9.511 9.511 0 0 1-.308 3.416ZM210.887 63.703c-.165 0-.307-.898-.307-2.009 0-1.111.142-2.021.307-2.021.166 0 .308.91.308 2.021 0 1.111-.189 2.01-.308 2.01ZM221.774 63.916a9.358 9.358 0 0 1-.319-3.416 9.445 9.445 0 0 1 .319-3.428 9.882 9.882 0 0 1 .307 3.428 9.862 9.862 0 0 1-.307 3.416ZM232.104 63.703c-.165 0-.307-.898-.307-2.009 0-1.111.142-2.021.307-2.021.166 0 .308.91.308 2.021 0 1.111-.13 2.01-.308 2.01ZM242.992 63.916a9.511 9.511 0 0 1-.308-3.416 9.576 9.576 0 0 1 .308-3.428 9.93 9.93 0 0 1 .307 3.428 9.862 9.862 0 0 1-.307 3.416ZM253.321 63.703c-.165 0-.307-.898-.307-2.009 0-1.111.142-2.021.307-2.021s.307.91.307 2.021c0 1.111-.142 2.01-.307 2.01ZM264.197 63.916a9.534 9.534 0 0 1-.308-3.416 9.576 9.576 0 0 1 .308-3.428 9.93 9.93 0 0 1 .307 3.428 9.862 9.862 0 0 1-.307 3.416ZM274.54 63.703c-.166 0-.308-.898-.308-2.009 0-1.111.142-2.021.308-2.021.165 0 .307.91.307 2.021 0 1.111-.13 2.01-.307 2.01ZM285.472 63.916a9.533 9.533 0 0 1-.307-3.416 9.576 9.576 0 0 1 .307-3.428 9.906 9.906 0 0 1 .308 3.428 9.887 9.887 0 0 1-.308 3.416ZM295.757 63.703c-.166 0-.308-.898-.308-2.009 0-1.111.142-2.021.308-2.021.165 0 .307.91.307 2.021 0 1.111-.13 2.01-.307 2.01ZM306.642 63.916a9.533 9.533 0 0 1-.307-3.416 9.553 9.553 0 0 1 .307-3.428 9.882 9.882 0 0 1 .307 3.428 9.862 9.862 0 0 1-.307 3.416ZM316.973 63.703c-.165 0-.307-.898-.307-2.009 0-1.111.142-2.021.307-2.021.166 0 .308.91.308 2.021 0 1.111-.13 2.01-.308 2.01ZM327.859 63.916a9.533 9.533 0 0 1-.307-3.416 9.553 9.553 0 0 1 .307-3.428 9.882 9.882 0 0 1 .307 3.428 9.862 9.862 0 0 1-.307 3.416ZM338.19 63.703c-.165 0-.307-.898-.307-2.009 0-1.111.142-2.021.307-2.021.166 0 .307.91.307 2.021 0 1.111-.13 2.01-.307 2.01ZM349.076 63.916a9.839 9.839 0 0 1-.308-3.416 9.906 9.906 0 0 1 .308-3.428 9.93 9.93 0 0 1 .307 3.428 9.862 9.862 0 0 1-.307 3.416ZM359.407 63.703c-.166 0-.307-.898-.307-2.009 0-1.111.141-2.021.307-2.021.165 0 .307.91.307 2.021 0 1.111-.13 2.01-.307 2.01ZM370.292 63.916a9.862 9.862 0 0 1-.307-3.416 9.93 9.93 0 0 1 .307-3.428 9.906 9.906 0 0 1 .308 3.428 9.839 9.839 0 0 1-.308 3.416ZM380.624 63.703c-.166 0-.308-.898-.308-2.009 0-1.111.142-2.021.308-2.021.165 0 .319.91.319 2.021 0 1.111-.142 2.01-.319 2.01ZM158.55 285.376c0 .177-.898.307-2.009.307-1.111 0-2.01-.13-2.01-.307 0-.178.899-.308 2.01-.308 1.111 0 2.009.142 2.009.308ZM158.774 274.501a9.933 9.933 0 0 1-3.428.307 9.883 9.883 0 0 1-3.428-.307 9.555 9.555 0 0 1 3.428-.307 9.6 9.6 0 0 1 3.428.307ZM158.55 264.159c0 .177-.898.307-2.009.307-1.111 0-2.01-.13-2.01-.307s.899-.307 2.01-.307c1.111 0 2.009.141 2.009.307ZM158.774 253.284a9.958 9.958 0 0 1-3.428.308 9.907 9.907 0 0 1-3.428-.308 9.577 9.577 0 0 1 3.428-.307 9.623 9.623 0 0 1 3.428.307ZM158.55 242.942c0 .177-.898.307-2.009.307-1.111 0-2.01-.13-2.01-.307 0-.178.899-.308 2.01-.308 1.111 0 2.009.142 2.009.308ZM158.774 232.067a9.958 9.958 0 0 1-3.428.308 9.907 9.907 0 0 1-3.428-.308 9.6 9.6 0 0 1 3.428-.307 9.646 9.646 0 0 1 3.428.307ZM158.55 221.784c0 .165-.898.307-2.009.307-1.111 0-2.01-.142-2.01-.307 0-.166.899-.307 2.01-.307 1.111 0 2.009.082 2.009.307ZM158.774 210.851a9.982 9.982 0 0 1-3.428.307 9.931 9.931 0 0 1-3.428-.307 9.578 9.578 0 0 1 3.428-.308 9.623 9.623 0 0 1 3.428.308ZM158.55 200.508c0 .165-.898.307-2.009.307-1.111 0-2.01-.142-2.01-.307s.899-.307 2.01-.307c1.111 0 2.009.142 2.009.307ZM158.774 189.622a9.47 9.47 0 0 1-3.428.319 9.466 9.466 0 0 1-3.428-.319 9.907 9.907 0 0 1 3.428-.308 9.958 9.958 0 0 1 3.428.308ZM158.55 179.291c0 .166-.898.308-2.009.308-1.111 0-2.01-.142-2.01-.308 0-.165.899-.307 2.01-.307 1.111 0 2.009.142 2.009.307ZM158.774 168.405a9.646 9.646 0 0 1-3.428.307 9.577 9.577 0 0 1-3.428-.307 9.907 9.907 0 0 1 3.428-.308 9.958 9.958 0 0 1 3.428.308ZM158.55 158.074c0 .165-.898.307-2.009.307-1.111 0-2.01-.142-2.01-.307 0-.166.899-.307 2.01-.307 1.111 0 2.009.189 2.009.307ZM158.774 147.188a9.6 9.6 0 0 1-3.428.307 9.555 9.555 0 0 1-3.428-.307 9.883 9.883 0 0 1 3.428-.307 9.933 9.933 0 0 1 3.428.307ZM158.55 136.858c0 .165-.898.307-2.009.307-1.111 0-2.01-.142-2.01-.307 0-.166.899-.308 2.01-.308 1.111 0 2.009.13 2.009.308ZM158.774 125.971a9.6 9.6 0 0 1-3.428.307 9.555 9.555 0 0 1-3.428-.307 9.907 9.907 0 0 1 3.428-.307 9.933 9.933 0 0 1 3.428.307ZM158.55 115.64c0 .166-.898.308-2.009.308-1.111 0-2.01-.142-2.01-.308 0-.165.899-.307 2.01-.307 1.111 0 2.009.13 2.009.307ZM158.774 104.766c-1.115.308-2.276.412-3.428.308a9.576 9.576 0 0 1-3.44-.308 9.931 9.931 0 0 1 3.428-.307 9.95 9.95 0 0 1 3.44.307ZM158.55 94.424c0 .165-.898.307-2.009.307-1.111 0-2.01-.142-2.01-.307 0-.166.899-.308 2.01-.308 1.111 0 2.009.13 2.009.308ZM158.774 83.49a9.623 9.623 0 0 1-3.428.308 9.576 9.576 0 0 1-3.44-.308 9.904 9.904 0 0 1 3.428-.307 9.953 9.953 0 0 1 3.44.307ZM158.55 73.207c0 .165-.898.307-2.009.307-1.111 0-2.01-.142-2.01-.307 0-.166.899-.308 2.01-.308 1.111 0 2.009.13 2.009.308Z" fill="#263238"/><path d="M405.469 290.896a1.073 1.073 0 0 1 0-.32v-4.29c0-3.014 0-7.459-.095-13.262 0-11.584-.118-28.557-.201-50.164-.094-43.096-.236-104.678-.401-178.66l.792.792-257.676.13.933-.922c0 90.116-.094 174.7-.118 246.696l-.815-.816 186.46.414 52.493.212 13.888.095h4.468c.11-.016.221-.016.331 0h-4.704l-13.735.095-52.315.212-186.969.414h-.804v-.804c0-71.995-.071-156.579-.118-246.695v-.721h.957l257.676.13h.792v.792c-.177 74.182-.307 135.93-.413 179.156-.083 21.536-.154 38.45-.201 49.986 0 5.745-.071 10.142-.095 13.109V290.647a2.102 2.102 0 0 1-.13.249Z" fill="#263238"/><path d="M520.168 186.028a4.53 4.53 0 0 1 1.329 5.266 4.529 4.529 0 0 1-8.637-.969 4.526 4.526 0 0 1 2.462-4.84l-8.9-1.005a4.519 4.519 0 0 1 1.317 5.25 4.515 4.515 0 1 1-6.163-5.794l-8.901-.993a4.541 4.541 0 0 1-.548 7.445 4.536 4.536 0 0 1-5.413-.608 4.538 4.538 0 0 1 1.115-7.38l-8.912-1.005a4.521 4.521 0 0 1 1.544 2.411 4.52 4.52 0 0 1-2.093 5.013 4.53 4.53 0 0 1-5.4-.607 4.53 4.53 0 0 1 1.114-7.361l-8.912-1.005a4.543 4.543 0 0 1-.524 7.45 4.542 4.542 0 0 1-5.418-.596 4.538 4.538 0 0 1 1.108-7.385l-8.913-1.005a4.528 4.528 0 1 1-4.834-.544l-6.111-.685-12.943 115.28 88.65 9.952 12.943-115.28-8.96-1.005Z" fill="#fff"/><path d="m520.169 186.028 8.983.922h.083v.083c-1.939 17.529-6.572 59.384-12.766 115.292v.26h-.26l-88.65-9.917h-.295v-.295l5.141-45.874c2.707-24.089 5.331-47.398 7.802-69.407v-.295h.295l6.111.685 1.028.119-.933.437a4.234 4.234 0 0 0-1.035 6.879 4.23 4.23 0 0 0 6.804-1.449 4.232 4.232 0 0 0-1.242-4.922l-.78-.626.992.118 8.913 1.005.969.106-.887.426a4.245 4.245 0 0 0-1.009 6.9 4.24 4.24 0 0 0 6.816-1.473 4.239 4.239 0 0 0-1.256-4.931l-.733-.579.934.106 8.901 1.005.91.106-.816.39a4.257 4.257 0 0 0 1.442 8.038 4.261 4.261 0 0 0 4.389-2.598 4.258 4.258 0 0 0-1.257-4.943l-.661-.52.839.094 8.9 1.005.78.095-.697.342a4.294 4.294 0 0 0-1.006 6.978 4.286 4.286 0 0 0 5.113.55 4.284 4.284 0 0 0 1.968-4.751 4.283 4.283 0 0 0-1.465-2.28l-.556-.438.698.083 8.912 1.005.638.083-.579.283a4.327 4.327 0 0 0-2.104 2.246 4.344 4.344 0 0 0 2.762 5.779 4.345 4.345 0 0 0 4.414-1.147 4.35 4.35 0 0 0-.403-6.393l-.402-.319h.508l8.901 1.016h.437l-.39.189a4.42 4.42 0 0 0 3.711 8.014 4.443 4.443 0 0 0 2.033-6.43 5.026 5.026 0 0 0-.957-1.182s.106.071.296.237a4.559 4.559 0 0 1 1.028 5.189 4.616 4.616 0 0 1-3.36 2.615 4.62 4.62 0 0 1-5.401-5.288 4.622 4.622 0 0 1 2.544-3.415v.237l-8.913-.969.107-.261a4.734 4.734 0 0 1 1.419 4.981 4.722 4.722 0 0 1-3.996 3.293 4.73 4.73 0 0 1-4.561-6.599 4.733 4.733 0 0 1 2.126-2.301l.059.355-8.9-.981.141-.367a4.72 4.72 0 0 1 1.621 4.727 4.723 4.723 0 0 1-3.525 3.541 4.73 4.73 0 0 1-5.388-6.554 4.836 4.836 0 0 1 2.222-2.305l.082.437-8.912-.992.177-.426a4.73 4.73 0 0 1 1.341 5.499 4.724 4.724 0 0 1-4.894 2.844 4.73 4.73 0 0 1-4.114-3.887 4.723 4.723 0 0 1 2.561-5.047l.095.497-8.912-.993.2-.473a4.792 4.792 0 0 1 1.828 3.275 4.81 4.81 0 0 1-2.582 4.785 4.786 4.786 0 0 1-3.741.271 4.8 4.8 0 0 1-1.651-.967 4.867 4.867 0 0 1-1.56-2.648 4.82 4.82 0 0 1 2.565-5.307l.094.532-8.9-.993.201-.508a4.81 4.81 0 1 1-6.324 7.242 4.81 4.81 0 0 1 1.182-7.822l.095.556-6.111-.686.331-.26a176898.61 176898.61 0 0 0-7.778 69.396c-1.773 15.72-3.546 31.11-5.153 45.873l-.272-.331 88.65 10-.296.224c6.371-55.885 11.135-97.727 13.132-115.256l.071.094-8.912-.934Z" fill="#263238"/><path d="M439.875 293.744c-.166 0 2.364-24.077 5.721-53.722s6.17-53.698 6.335-53.698c.166 0-2.364 24.065-5.721 53.722-3.357 29.656-6.17 53.71-6.335 53.698Z" fill="#E0E0E0"/><path d="M527.84 198.676c0 .177-19.893-1.915-44.372-4.669-24.48-2.754-44.337-5.106-44.337-5.319 0-.213 19.881 1.927 44.372 4.728 24.491 2.801 44.349 5.094 44.337 5.26Z" fill="#E0E0E0"/><path d="M452.831 295.198c-.177 0 2.364-24.266 5.768-54.136 3.404-29.869 6.206-54.1 6.371-54.076.166.023-2.364 24.254-5.768 54.147-3.404 29.893-6.206 54.077-6.371 54.065ZM465.773 296.652c-.165 0 2.364-24.078 5.721-53.722 3.357-29.645 6.17-53.675 6.336-53.651.165.023-2.364 24.065-5.721 53.722-3.357 29.656-6.158 53.663-6.336 53.651ZM478.728 298.105c-.165 0 2.364-24.077 5.721-53.722 3.357-29.644 6.17-53.674 6.336-53.651.165.024-2.364 24.066-5.721 53.722-3.357 29.657-6.17 53.663-6.336 53.651ZM491.683 299.56c-.165 0 2.364-23.995 5.698-53.557 3.333-29.562 6.146-53.509 6.323-53.485.178.023-2.364 23.994-5.709 53.556-3.345 29.562-6.146 53.497-6.312 53.486ZM504.638 300.978c-.178 0 2.364-23.983 5.78-53.521 3.416-29.538 6.229-53.474 6.394-53.462.166.012-2.364 23.983-5.78 53.533-3.416 29.55-6.229 53.45-6.394 53.45Z" fill="#E0E0E0"/><path d="M519.246 275.222c0 .165-19.893-1.927-44.396-4.728-24.502-2.801-44.336-5.118-44.325-5.284.012-.165 19.893 1.927 44.396 4.669 24.503 2.742 44.337 5.166 44.325 5.343ZM517.805 288.071c0 .165-19.905-1.927-44.396-4.728-24.491-2.802-44.337-5.119-44.325-5.284.012-.166 19.893 1.927 44.396 4.728 24.503 2.801 44.337 5.106 44.325 5.284ZM520.69 262.267c0 .166-20.094-1.938-44.739-4.728-24.645-2.789-44.68-5.153-44.668-5.319.012-.165 20.094 1.939 44.739 4.728 24.645 2.79 44.668 5.154 44.668 5.319ZM522.155 249.313c0 .165-19.894-1.927-44.396-4.669-24.503-2.742-44.337-5.118-44.325-5.284.011-.165 19.893 1.915 44.396 4.669 24.502 2.754 44.336 5.118 44.325 5.284ZM523.608 236.358c0 .177-19.893-1.915-44.396-4.728-24.503-2.813-44.337-5.118-44.325-5.283.012-.166 19.893 1.926 44.396 4.728 24.502 2.801 44.336 5.118 44.325 5.283ZM525.062 223.415c0 .166-19.834-1.915-44.254-4.657-24.42-2.742-44.207-5.106-44.183-5.272.024-.165 19.822 1.915 44.254 4.657 24.432 2.743 44.195 5.095 44.183 5.272ZM526.517 210.46c0 .166-19.822-1.95-44.231-4.728-24.408-2.778-44.171-5.189-44.147-5.354.023-.166 19.81 1.95 44.218 4.728 24.409 2.777 44.172 5.189 44.16 5.354Z" fill="#E0E0E0"/><path d="M470.299 265.518c-.19.041-.388.041-.579 0a3.361 3.361 0 0 1-1.536-.71 7.172 7.172 0 0 1-1.719-2.571 7.176 7.176 0 0 1-.48-3.055c0-1.3.177-2.707.154-4.196a7.232 7.232 0 0 0-1.289-4.397c-.945-1.359-2.364-2.518-3.404-4.102a14.181 14.181 0 0 1-2.151-5.401 17.211 17.211 0 0 1 1.738-10.922 21.132 21.132 0 0 1 5.91-6.856 26.451 26.451 0 0 1 5.271-3.096c.662-.272 1.182-.485 1.549-.591.178-.076.365-.131.555-.166-.648.361-1.315.689-1.997.981a28.309 28.309 0 0 0-5.107 3.215 21.136 21.136 0 0 0-5.709 6.785 16.8 16.8 0 0 0-1.631 10.543 13.69 13.69 0 0 0 2.045 5.166c.993 1.513 2.364 2.671 3.369 4.125a7.78 7.78 0 0 1 1.347 4.728c0 1.536-.213 2.931-.236 4.208a7.002 7.002 0 0 0 1.926 5.425 4.064 4.064 0 0 0 1.974.887ZM485.536 266.77c.049-.226.121-.448.212-.661.13-.426.284-1.064.45-1.892.354-1.666.638-4.125 1.371-7.092.19-.79.451-1.561.78-2.305.394-.789.877-1.531 1.442-2.21 1.111-1.442 2.47-2.813 3.759-4.326a17.285 17.285 0 0 0 4.373-11.82 17.153 17.153 0 0 0-4.598-11.714 17.997 17.997 0 0 0-9.137-4.976 18.28 18.28 0 0 0-7.092-.106c-1.655.331-2.529.697-2.553.626.2-.11.409-.201.626-.272.61-.246 1.239-.444 1.88-.591a17.616 17.616 0 0 1 7.245-.082 18.116 18.116 0 0 1 9.456 5.011 17.506 17.506 0 0 1 4.811 12.104 18.091 18.091 0 0 1-1.182 6.761 18.39 18.39 0 0 1-3.357 5.437c-2.647 3.038-5.472 5.497-6.004 8.582-.769 2.931-1.123 5.389-1.549 7.092a12.394 12.394 0 0 1-.579 1.891 2.862 2.862 0 0 1-.354.543ZM484.698 266.7a7.361 7.361 0 0 1-2.187.52c-1.788.26-3.597.347-5.402.26a28.567 28.567 0 0 1-5.366-.745 6.71 6.71 0 0 1-2.128-.709c0-.189 3.357.674 7.518.839 4.16.166 7.541-.378 7.565-.165ZM483.788 271.735a23.778 23.778 0 0 1-7.411.201 23.315 23.315 0 0 1-7.258-1.501c0-.177 3.262.544 7.317.898 4.054.355 7.34.213 7.352.402ZM481.896 276.605a14.115 14.115 0 0 1-10.697-1.028c.071-.178 2.364.685 5.307.957 2.944.272 5.355-.118 5.39.071Z" fill="#263238"/><path d="M463.763 243.792a2.355 2.355 0 0 1-.295-.862 13.426 13.426 0 0 1-.355-2.459 16.25 16.25 0 0 1 6.962-14.184c.687-.454 1.41-.85 2.163-1.182.267-.15.56-.25.863-.295 0 .094-1.182.626-2.766 1.879a17.085 17.085 0 0 0-6.784 13.853c.011 1.974.319 3.239.212 3.25ZM479.769 223.651c0 .166-.437.307-.981.296-.544-.012-.981-.154-.969-.319.011-.166.437-.296.981-.296.543 0 .969.154.969.319ZM461.294 255.412a38.812 38.812 0 0 1-6.087 3.38 39.342 39.342 0 0 1-6.371 2.825 38.598 38.598 0 0 1 6.099-3.38 39.558 39.558 0 0 1 6.359-2.825ZM453.492 235.235a26.316 26.316 0 0 1-5.579.319 24.806 24.806 0 0 1-5.591-.295 26.188 26.188 0 0 1 5.579-.319 24.803 24.803 0 0 1 5.591.295ZM464.673 218.463a26.798 26.798 0 0 1-5.532-3.818 28.014 28.014 0 0 1-4.858-4.634 55.777 55.777 0 0 1 5.248 4.161 58.057 58.057 0 0 1 5.142 4.291ZM482.239 213.746a33.57 33.57 0 0 1-.555-6.288 33.111 33.111 0 0 1 0-6.312c.389 2.073.579 4.179.567 6.288a31.55 31.55 0 0 1-.012 6.312ZM509.792 212.753a24.217 24.217 0 0 1-4.976 4.586 23.91 23.91 0 0 1-5.757 3.546c-.094-.153 2.435-1.808 5.39-4.054 2.955-2.246 5.225-4.208 5.343-4.078ZM511.929 242.705a14.556 14.556 0 0 1-5.508.414 14.804 14.804 0 0 1-5.413-1.088c0-.177 2.447.296 5.449.473s5.449.024 5.472.201ZM503.16 266.593a41.147 41.147 0 0 1-4.03-3.723 39.098 39.098 0 0 1-3.948-3.806 17.917 17.917 0 0 1 4.361 3.357 17.486 17.486 0 0 1 3.617 4.172ZM480.501 276.782a2.654 2.654 0 0 1-.792 1.62 4.911 4.911 0 0 1-3.941 1.772 4.922 4.922 0 0 1-3.813-2.032 2.694 2.694 0 0 1-.674-1.667c.107 0 .319.615 1.017 1.383a4.8 4.8 0 0 0 3.491 1.697 4.792 4.792 0 0 0 3.601-1.449c.709-.768.969-1.359 1.111-1.324Z" fill="#263238"/><path d="M450.431 194.763a4.723 4.723 0 0 1-3.393 4.007 4.729 4.729 0 1 1 3.393-4.007ZM531.386 198.215a4.729 4.729 0 1 1-9.396-1.072 4.729 4.729 0 0 1 9.396 1.072ZM476.234 263.899a4.316 4.316 0 0 1-.142-1.466 7.506 7.506 0 0 1 1.525-3.912 16.356 16.356 0 0 1 4.976-4.315c2.128-1.371 4.787-2.73 6.631-5.26l.248.379-13.876 3.073-1.927.425c-.387.1-.794.1-1.182 0a1.314 1.314 0 0 1-.886-.863c-.26-1.725 1.182-2.789 2.056-3.664l6.218-5.78 9.999-9.243.237.508a68.264 68.264 0 0 0-21.761 6.099l-.52.237.225-.52a25.893 25.893 0 0 1 6.477-9.031 22.5 22.5 0 0 1 2.364-1.879c.284-.201.508-.331.662-.426l.236-.13a6.325 6.325 0 0 1-.827.65 32.693 32.693 0 0 0-2.293 1.963 26.523 26.523 0 0 0-6.229 9.018l-.296-.283a67.46 67.46 0 0 1 21.879-6.289l.898-.094-.662.614-9.976 9.255-6.229 5.769a8.861 8.861 0 0 0-1.395 1.43 2.138 2.138 0 0 0-.508 1.619c.13.473.733.615 1.336.461l1.903-.414 13.9-2.99.65-.13-.39.52c-1.974 2.648-4.728 3.972-6.82 5.307a16.538 16.538 0 0 0-4.964 4.149 7.403 7.403 0 0 0-1.596 3.759c-.006.485.013.97.059 1.454Z" fill="#0760A1"/><path d="m103.124 245.554-7.092-12.411a33.297 33.297 0 1 0-7.979 8.865l15.071 3.546Z" fill="#fff"/><path d="m103.125 245.555-15.047-3.416a.124.124 0 0 1-.078-.051.115.115 0 0 1-.017-.091l.178.177a33.235 33.235 0 0 1-15.957 6.738c-1.746.241-3.51.332-5.272.271-.898-.059-1.832-.082-2.754-.153l-2.813-.426a33.471 33.471 0 0 1-20.792-13.345 33.086 33.086 0 0 1-5.626-12.848 33.946 33.946 0 0 1 .39-14.81 32.785 32.785 0 0 1 7.092-13.688 33.447 33.447 0 0 1 12.825-9.149 34.06 34.06 0 0 1 14.917-2.293 32.75 32.75 0 0 1 13.687 4.055 33.754 33.754 0 0 1 15.792 19.432 36.054 36.054 0 0 1 1.442 10.815 33.172 33.172 0 0 1-4.976 16.548v-.118l6.95 12.47-7.092-12.352a.13.13 0 0 1 0-.13 33.008 33.008 0 0 0 4.834-16.371 35.62 35.62 0 0 0-1.477-10.638 33.356 33.356 0 0 0-15.626-19.337 32.49 32.49 0 0 0-13.51-3.96 33.36 33.36 0 0 0-14.693 2.258 32.997 32.997 0 0 0-19.668 22.458 33.518 33.518 0 0 0-.39 14.597 32.765 32.765 0 0 0 5.52 12.671 33.187 33.187 0 0 0 20.495 13.274l2.778.438c.922.071 1.832.094 2.73.153a29.029 29.029 0 0 0 5.213-.248 33.095 33.095 0 0 0 15.898-6.607.13.13 0 0 1 .156.021.129.129 0 0 1 .021.156l-.177-.177 15.047 3.676Z" fill="#263238"/><path d="m53.918 216.3 3.912-3.901 7.518 6.69 14.775-14.219 3.629 3.9-18.96 17.837L53.918 216.3Z" fill="#0760A1"/><path d="m138.17 249.077 10.733 16.642 14.385 13.097 7.565-11.466-.485-11.169-.402-9.362s12.364-2.293 12.151-14.716c-.094-5.993-1.312-18.321-2.529-29.467a23.14 23.14 0 0 0-23.64-20.602h-1.182c-12.896 1.182-19.137 12.706-17.647 25.566l1.099 41.441" fill="#936760"/><path d="M169.978 246.807a28.922 28.922 0 0 1-16.312-4.125s4.09 8.817 16.442 7.34l-.13-3.215Z" fill="#6F4C47"/><path d="M176.337 213.676a1.786 1.786 0 0 1-1.655 1.844 1.709 1.709 0 0 1-1.691-.902 1.726 1.726 0 0 1-.189-.647 1.76 1.76 0 0 1 1.655-1.832 1.685 1.685 0 0 1 1.265.371 1.7 1.7 0 0 1 .615 1.166ZM177.258 208.12c-.213.249-1.584-.709-3.546-.65-1.962.059-3.274 1.052-3.546.828-.272-.225.106-.532.709-.993a4.955 4.955 0 0 1 2.778-.946 4.634 4.634 0 0 1 2.789.816c.709.425.922.839.816.945ZM159.481 213.676a1.785 1.785 0 0 1-1.655 1.844 1.712 1.712 0 0 1-1.265-.379 1.69 1.69 0 0 1-.614-1.17 1.76 1.76 0 0 1 1.655-1.832 1.687 1.687 0 0 1 1.69.891c.106.201.17.42.189.646ZM158.24 208.144c-.189.26-1.655-.544-3.546-.272-1.891.272-3.144 1.395-3.381 1.182-.236-.213 0-.532.591-1.052a4.917 4.917 0 0 1 2.672-1.253 4.73 4.73 0 0 1 2.86.508c.638.343.887.769.804.887ZM165.687 223.628a12.426 12.426 0 0 1 3.085-.65c.485 0 .934-.177 1.017-.508.02-.503-.108-1-.367-1.43-.496-1.182-1.016-2.364-1.548-3.676-2.163-5.213-3.735-9.456-3.546-9.598.189-.142 2.128 4.078 4.279 9.29l1.489 3.7a2.75 2.75 0 0 1 .307 1.903 1.179 1.179 0 0 1-.78.733 3.325 3.325 0 0 1-.815.142 12.938 12.938 0 0 1-3.121.094ZM158.264 199.906c-.177.52-2.092.331-4.314.661-2.222.331-4.031 1.005-4.338.544-.142-.213.165-.709.875-1.182a7.323 7.323 0 0 1 3.191-1.182 7.255 7.255 0 0 1 3.404.296c.828.212 1.253.614 1.182.863ZM176.726 200.757c-.319.449-1.643 0-3.227 0-1.584 0-2.908.378-3.227-.071-.142-.213.059-.65.627-1.088a4.725 4.725 0 0 1 5.212 0c.615.508.757.91.615 1.159Z" fill="#263238"/><path d="M138.346 216.796c-.212-.083-8.605-2.281-8.085 6.206.521 8.486 8.925 6.205 8.925 5.91 0-.296-.84-12.116-.84-12.116Z" fill="#936760"/><path d="M136.397 225.909s-.142.107-.379.237c-.343.176-.742.21-1.111.094a3.687 3.687 0 0 1-1.891-3.179 5.044 5.044 0 0 1 .284-2.14 1.718 1.718 0 0 1 1.052-1.182.743.743 0 0 1 .886.355c.13.225.083.402.13.414.048.011.178-.154.083-.509a.885.885 0 0 0-.366-.508 1.18 1.18 0 0 0-.828-.165 2.065 2.065 0 0 0-1.454 1.406 5.14 5.14 0 0 0-.378 2.364c.166 1.702 1.182 3.251 2.364 3.546a1.523 1.523 0 0 0 1.336-.307c.272-.225.307-.414.272-.426Z" fill="#6F4C47"/><path d="M180.545 188.109a4.352 4.352 0 0 0-3.357-3.369 3.864 3.864 0 0 0-6.17-4.314 3.97 3.97 0 0 0-5.508-3.392 3.346 3.346 0 0 0-4.715-3.176 3.34 3.34 0 0 0-1.608 1.533 5.788 5.788 0 0 0-4.39-2.398 5.775 5.775 0 0 0-4.617 1.925 7.38 7.38 0 0 0-8.83 4.208 7.088 7.088 0 0 0-6.028 4.988 5.136 5.136 0 0 0-4.113 3.045 5.13 5.13 0 0 0 .567 5.087 3.789 3.789 0 0 0-1.574 4.565c.205.548.533 1.04.959 1.44a3.74 3.74 0 0 0-1.966 3.455 3.736 3.736 0 0 0 2.262 3.27c-1.182.189-1.69 1.856-1.288 3.05a37.523 37.523 0 0 0 1.867 3.274c.437.946.579 1.986.958 2.955a6.758 6.758 0 0 0 4.113 3.889l-.213.26c-.189 1.087 1.348 1.796 2.364 1.335a5.494 5.494 0 0 0 2.116-2.494 11.88 11.88 0 0 0 1.69-3.404 2.94 2.94 0 0 0-1.265-3.298 4.418 4.418 0 0 0 2.589-3.546c.143-1.54.007-3.094-.402-4.586-.461-2.234-.922-4.456-1.395-6.69a8.477 8.477 0 0 0 7.187-5.023 4.875 4.875 0 0 0 1.9.724 4.87 4.87 0 0 0 3.835-1.056c.529-.437.959-.98 1.262-1.595a6.324 6.324 0 0 0 7.802 3.688c-.284 1.761 2.919 3.309 4.657 3.723a6.264 6.264 0 0 0 3.877-.875s3.014 1.679 4.621.982c1.608-.698 3.724-2.873 2.542-4.48a7.959 7.959 0 0 0 .271-3.7Z" fill="#263238"/><path d="M130.724 198.239c.083 0 .154.579.875 1.064a1.596 1.596 0 0 0 1.395.213 1.703 1.703 0 0 0 1.182-1.289l.082-.508.402.331a2.21 2.21 0 0 0 3.605-1.986l-.082-.496.472.177a2.248 2.248 0 0 0 1.714-.059 2.37 2.37 0 0 0 1.017-.946c.176-.403.311-.822.402-1.253 0 0 .272.52-.083 1.407a2.49 2.49 0 0 1-1.111 1.182 2.749 2.749 0 0 1-2.14.177l.391-.319a2.814 2.814 0 0 1-1.573 2.955c-.49.216-1.031.291-1.561.216a2.879 2.879 0 0 1-1.441-.641l.497-.178a2.21 2.21 0 0 1-1.596 1.667 1.998 1.998 0 0 1-1.761-.402c-.78-.638-.78-1.348-.686-1.312ZM129.672 206.418c0-.059.319.225.922.331a2.045 2.045 0 0 0 2.104-.969l.165-.308.237.249a2.364 2.364 0 0 0 2.186.543 2.192 2.192 0 0 0 1.525-2.021v-.567l.473.295c.125.074.26.13.402.166a1.538 1.538 0 0 0 1.69-.615 1.608 1.608 0 0 0 0-1.69l-.331-.52.603.071a2.71 2.71 0 0 0 1.95-.532c.435-.335.754-.798.91-1.324.119-.487.171-.988.154-1.489a1.942 1.942 0 0 1 .177 1.583 2.893 2.893 0 0 1-.945 1.596 3.108 3.108 0 0 1-2.364.733l.272-.437a2.144 2.144 0 0 1-.046 2.452 2.135 2.135 0 0 1-2.318.798 2.227 2.227 0 0 1-.568-.248l.485-.272a2.786 2.786 0 0 1-2.01 2.6 2.74 2.74 0 0 1-2.695-.78l.39-.059a2.125 2.125 0 0 1-1.347 1.017 2.244 2.244 0 0 1-1.253 0c-.591-.225-.792-.603-.768-.603ZM164.387 176.868a3.253 3.253 0 0 0-.969-.52 1.796 1.796 0 0 0-2.234 1.36l-.107.484-.26-.425a3.15 3.15 0 0 0-2.659-1.395 3.028 3.028 0 0 0-2.742 2.21l-.142.568-.379-.45a3.736 3.736 0 0 0-2.966-1.323 3.538 3.538 0 0 0-2.967 1.761 3.819 3.819 0 0 0-.497 1.395v.342l-.331-.071a3.624 3.624 0 0 0-2.343.317 3.625 3.625 0 0 0-1.652 1.693 3.69 3.69 0 0 0 .709 3.948l.343.331-.473.106a3.95 3.95 0 0 0-3.144 3.96 6.06 6.06 0 0 0 .509 2.045s-.154-.13-.343-.461a3.978 3.978 0 0 1-.449-1.572 4.024 4.024 0 0 1 .579-2.506 4.43 4.43 0 0 1 2.742-1.974l-.13.437a4.109 4.109 0 0 1-.733-4.903 4.112 4.112 0 0 1 4.515-2.047l-.378.272a4.152 4.152 0 0 1 .579-1.643 4.237 4.237 0 0 1 3.546-2.057 4.352 4.352 0 0 1 3.44 1.572l-.508.118a3.445 3.445 0 0 1 2.864-2.541 3.452 3.452 0 0 1 3.448 1.667h-.367a2.136 2.136 0 0 1 1.253-1.454c.461-.177.97-.177 1.43 0 .282.102.537.268.745.485.035.118.083.271.071.271Z" fill="#455A64"/><path d="M181.773 225.33a2.677 2.677 0 0 0-2.27-.279 2.66 2.66 0 0 0-1.654 1.579 3.305 3.305 0 0 0-3.277-1.393 3.299 3.299 0 0 0-2.633 2.398 2.71 2.71 0 0 0-2.056-1.622 2.712 2.712 0 0 0-2.471.866 2.124 2.124 0 0 0-2.293-.934 2.09 2.09 0 0 0-1.08-2.099 2.094 2.094 0 0 0-2.348.243 3.42 3.42 0 0 0-3.768-1.489 3.41 3.41 0 0 0-1.279.65 1.89 1.89 0 0 0-3.653.142 3.054 3.054 0 0 0-1.619-1.05 3.054 3.054 0 0 0-1.927.128 2.045 2.045 0 0 0-.829-1.549 2.074 2.074 0 0 0-.824-.365 2.07 2.07 0 0 0-.9.022c.296-1.04-1.182-1.512-2.033-2.269-.343-.331-.567-.792-.945-1.099-.379-.308-1.04-.367-1.289 0a1.747 1.747 0 0 0-1.058-2.24 1.752 1.752 0 0 0-2.239 1.058 5.614 5.614 0 0 0-.296 1.489c-.225 1.631-1.182 3.546 0 4.728.213.201.485.367.567.65.083.284-.307.922-.342 1.407-.036.484.484 1.016.721 1.536a5.256 5.256 0 0 1 0 2.53c-.071.851.413 1.927 1.264 1.844a3.004 3.004 0 0 0 .946 3.699 2.906 2.906 0 0 0 1.702 3.83 1.501 1.501 0 0 0-.106 1.974 4.319 4.319 0 0 0 1.737 1.253 1.185 1.185 0 0 0-.516 1.296c.042.161.117.311.221.442a2.86 2.86 0 0 0 1.666 1.028c.284.037.544.176.733.39.307.437-.106 1.04 0 1.56.13.816 1.277 1.052 1.619 1.797.343.744-.094 1.584.438 2.092.343.319.886.26 1.335.414.792.283 1.182 1.182 1.655 1.855a7.15 7.15 0 0 0 4.114 2.211c.792.201 1.572.378 2.364.52 1.584.295 3.191.484 4.787.685.804.095 1.785.107 2.198-.579a2.766 2.766 0 0 0 2.334.84 2.771 2.771 0 0 0 2.075-1.36 6.728 6.728 0 0 0 4.279-.815l1.407-.615c1.406-.603 2.966-1.395 3.38-2.861a3.083 3.083 0 0 0 2.21-4.219c.639.177 1.265-.473 1.36-1.123a5.891 5.891 0 0 0-.249-1.962c-.484-2.66.922-5.378.556-8.05-.26-1.879-1.371-3.735-.839-5.543.164-.374.256-.775.272-1.182 0-.39-.39-.792-.769-.674a1.718 1.718 0 0 0-.253-1.613 1.728 1.728 0 0 0-1.484-.68" fill="#263238"/><path d="M160.107 225.105c.307 0 .378 2.045 2.187 3.464 1.808 1.418 4.019 1.123 4.042 1.418.024.296-.484.414-1.406.473a5.239 5.239 0 0 1-3.369-1.064 4.505 4.505 0 0 1-1.702-2.908c-.107-.862.106-1.383.248-1.383Z" fill="#fff"/><path d="M148.004 239.692a14.013 14.013 0 0 1-.189-8.806 3.993 3.993 0 0 0-.52 1.182 10.63 10.63 0 0 0 .13 6.371c.114.449.311.874.579 1.253ZM146.054 236.701s-.26-.331-.473-.946a6.149 6.149 0 0 1-.212-2.494c.153-2.009.709-3.546.614-3.605a8.573 8.573 0 0 0-.945 3.546 5.372 5.372 0 0 0 .319 2.624c.295.662.638.899.697.875ZM143.962 234.987a12.99 12.99 0 0 1-.886-3.699 12.68 12.68 0 0 1 .579-3.759 2.595 2.595 0 0 0-.52 1.028 7.482 7.482 0 0 0 .224 5.449c.137.362.342.695.603.981ZM178.512 247.67a2.287 2.287 0 0 0 1.182-.756 6.83 6.83 0 0 0 1.477-3.038c.272-1.097.368-2.23.284-3.357a4.286 4.286 0 0 0-.272-1.371 16.89 16.89 0 0 1-.343 4.645 7.525 7.525 0 0 1-1.324 2.967c-.317.322-.653.626-1.004.91ZM176.727 247.221c.357-.159.678-.388.945-.674a6.657 6.657 0 0 0 1.572-2.364c.35-.882.503-1.83.449-2.777a2.602 2.602 0 0 0-.236-1.182 7.523 7.523 0 0 0 0 1.182 8.065 8.065 0 0 1-.52 2.659 7.667 7.667 0 0 1-1.43 2.305c-.497.532-.78.804-.78.851ZM169.033 230.46a2.19 2.19 0 0 0 .165-1.608 2.127 2.127 0 0 0-.78-1.418c-.082.059.284.65.449 1.478.166.827.06 1.524.166 1.548ZM166.88 229.94c.059.071.591-.402.721-1.182.13-.78-.225-1.454-.308-1.407-.082.048.095.627 0 1.348-.094.721-.484 1.182-.413 1.241ZM164.73 229.278c.06.071.544-.378.745-1.182a1.64 1.64 0 0 0 0-1.359c-.095 0-.071.603-.26 1.276-.189.674-.567 1.206-.485 1.265ZM163.182 227.517c.082 0 .331-.248.496-.697.166-.45.13-.84 0-.851-.13-.012-.224.331-.366.744-.142.414-.213.757-.13.804ZM161.834 226.819c.094 0 .378-.366.851-.744.473-.379.945-.556.922-.65-.024-.095-.591 0-1.182.39s-.674.969-.591 1.004ZM159.848 225.33c.059.071.627-.39 1.478-.602.851-.213 1.56-.119 1.584-.213a2.074 2.074 0 0 0-1.667-.118c-.946.212-1.466.839-1.395.933ZM167.684 249.455c.371-.334.676-.735.899-1.182a9.09 9.09 0 0 0 1.182-3.286 9.262 9.262 0 0 0-.119-3.546 3.614 3.614 0 0 0-.508-1.348s.13.532.272 1.395a10.397 10.397 0 0 1 0 3.404 10.23 10.23 0 0 1-1.064 3.215c-.378.863-.709 1.312-.662 1.348ZM165.498 249.324a6.14 6.14 0 0 0 1.82-3.096 6.215 6.215 0 0 0 .095-3.546 15.746 15.746 0 0 1-.426 3.546 15.453 15.453 0 0 1-1.489 3.096ZM161.668 248.569a1.98 1.98 0 0 0 .875-.426 5.909 5.909 0 0 0 2.435-3.924 2.115 2.115 0 0 0 0-.969 10.705 10.705 0 0 1-1.1 3.014c-.61.88-1.356 1.657-2.21 2.305Z" fill="#455A64"/><path d="m206.642 326.474 24.763 3.759 16.667-2.92 10.094-.934 6.974 5.78a4.257 4.257 0 0 1 1.536 3.345l-.118 5.071-1.052.674.875 2.423a2.852 2.852 0 0 1-.757 3.073l-6.95-7.092 4.043 7.967a4.525 4.525 0 0 1-3.546.295c-2.364-.532-7.234-9.775-7.234-9.775l-3.877-1.182 7.009 10.272s.272.815-1.607 1.182c-1.88.366-10.095-8.18-10.095-8.18a17.443 17.443 0 0 1-7.541 4.22c-4.078.804-43.155 3.203-43.155 3.203l-1.749-32.398 13.617-1.454 2.103 12.671Z" fill="#936760"/><path d="M262.752 347.632a17.516 17.516 0 0 1-1.371-2.554 262.646 262.646 0 0 1-3.002-6.311 4.81 4.81 0 0 0-2.199-2.766c-.993-.461-1.985-.804-2.777-1.182a14.178 14.178 0 0 1-2.542-1.182 15 15 0 0 1 2.672.803c.803.308 1.773.58 2.848 1.064a5.17 5.17 0 0 1 2.459 2.991c1.182 2.47 2.151 4.728 2.86 6.359.435.892.788 1.821 1.052 2.778ZM265.294 341.343a22.968 22.968 0 0 1-1.501-2.304 58.235 58.235 0 0 0-3.794-5.39l-1.182-1.466-.579-.697-.272-.331s-.107-.142-.13-.142h-.083a28.589 28.589 0 0 0-2.884-.568 15.132 15.132 0 0 1-2.707-.543c.921-.046 1.845.01 2.754.165 1.007.087 2.006.245 2.991.473h.118a.91.91 0 0 1 .177.094c.059.056.114.115.166.178l.283.331.579.685 1.182 1.466a39.177 39.177 0 0 1 3.712 5.532 9.6 9.6 0 0 1 1.17 2.517ZM232.836 338.329s.473.225 1.347.497a7.704 7.704 0 0 0 3.806.13 7.027 7.027 0 0 0 2.364-1.028c.792-.532 1.525-1.265 2.364-1.963a7.782 7.782 0 0 1 3.192-1.524 15.891 15.891 0 0 0 3.439-1.182c.551-.268 1.08-.576 1.584-.922.249-.166.485-.355.71-.532a.97.97 0 0 0 .212-.248.127.127 0 0 0 0-.119 1.184 1.184 0 0 0-.626-.106h-.875l-1.69-.059-5.827-.213-3.936-.189a6.145 6.145 0 0 1-1.431-.154 7.82 7.82 0 0 1 1.442-.071h4.007l5.839.083H251.311a1.43 1.43 0 0 1 1.052.307.682.682 0 0 1 .094.733 1.41 1.41 0 0 1-.366.449 9.03 9.03 0 0 1-.757.58 10.87 10.87 0 0 1-1.655.969 16.327 16.327 0 0 1-3.546 1.182 7.083 7.083 0 0 0-2.99 1.395c-.851.65-1.619 1.383-2.47 1.926a7.012 7.012 0 0 1-2.589 1.04 7.46 7.46 0 0 1-3.96-.33 6.337 6.337 0 0 1-.969-.473 1.446 1.446 0 0 1-.319-.178Z" fill="#6F4C47"/><path d="M201.903 440.667s-26.678 12.186-52.635 12.186c-24.042 0-50.932-12.103-50.932-12.103l103.567-.083Z" fill="#E0E0E0"/><path d="M146.539 549.659h10.295V441.837h-10.295v107.822Z" fill="#E0E0E0"/><path d="M105.536 551.515h91.368v-6.324h-91.368v6.324Z" fill="#E0E0E0"/><path d="M186.184 554.234a6.976 6.976 0 0 0 8.334 6.839 6.977 6.977 0 0 0 5.479-5.479 6.972 6.972 0 0 0-6.84-8.334 6.974 6.974 0 0 0-6.973 6.974ZM145.594 554.234a6.976 6.976 0 0 0 8.334 6.839 6.977 6.977 0 0 0 5.479-5.479 6.976 6.976 0 0 0-11.771-6.292 6.974 6.974 0 0 0-2.042 4.932ZM98.572 554.234a6.973 6.973 0 1 0 13.947 0 6.973 6.973 0 0 0-13.947 0Z" fill="#263238"/><path d="M149.257 486.434h14.007v-5.792h-14.007v5.792Z" fill="#E0E0E0"/><path d="M160.722 490.488h5.094v-13.912h-5.094v13.912Z" fill="#E0E0E0"/><path d="M96.031 440.667h114.311a7.714 7.714 0 0 0 5.474-2.26 7.724 7.724 0 0 0 2.269-5.47 7.743 7.743 0 0 0-7.743-7.742H86.008v5.449a10.021 10.021 0 0 0 10.023 10.023Z" fill="#455A64"/><path d="m175.048 274.537-80.671.993a7.327 7.327 0 0 0-7.234 7.257L85.96 425.194l108.685 1.49-12.269-145.386a7.307 7.307 0 0 0-7.329-6.761Z" fill="#455A64"/><path d="m267.599 517.698-.449 27.505s27.801 9.692 28.215 14.775l-53.344 1.052-1.076-42.871 26.654-.461Z" fill="#0760A1"/><path d="M250.614 543.217a2.188 2.188 0 0 0-1.466 2.518 2.094 2.094 0 0 0 2.482 1.466 2.362 2.362 0 0 0 1.537-2.672 2.19 2.19 0 0 0-2.754-1.241M242.021 561.018l-.177-4.326 51.369.615s2.364.981 2.152 2.659l-53.344 1.052Z" fill="#E0E0E0"/><path d="M268.012 544.919c0 .26-1.3.402-2.565 1.265-1.265.863-1.927 1.974-2.175 1.868-.248-.107.118-1.608 1.667-2.625 1.548-1.016 3.12-.756 3.073-.508ZM273.65 547.118c.071.248-1.052.721-1.915 1.832-.863 1.111-1.099 2.293-1.359 2.293s-.449-1.477.65-2.849c1.099-1.371 2.624-1.56 2.624-1.276ZM276.96 553.749c-.237 0-.627-1.182 0-2.671.626-1.49 1.844-2.034 1.962-1.821.118.213-.627.993-1.182 2.187-.556 1.194-.544 2.281-.78 2.305ZM267.421 538.631c-.106.248-1.312-.094-2.778 0-1.465.095-2.612.615-2.754.402-.141-.213.946-1.182 2.683-1.3 1.738-.118 2.967.697 2.849.898ZM187.435 376.331s15.803 2.364 32.08 5.401c19.514 3.617 40.282 8.156 43.072 10.343 5.106 4.007 6.193 14.952 8.38 28.451 2.187 13.498 2.683 113.909 2.683 113.909l-36.24 1.052-7.163-105.352s-52.918 0-63.828-.083c-8.782-.059-32.41.922-41.37-3.806-14.113-7.423-11.477-35.743-11.477-35.743 3.546-3.026 63.828-20.898 63.828-20.898l10.035 6.726Z" fill="#263238"/><path d="m276.676 451.648 5.248 27.73s29.928 4.007 31.394 9.03l-53.391 12.045-9.917-42.86 26.666-5.945Z" fill="#0760A1"/><path d="M264.856 480.784a2.238 2.238 0 0 0-.945 2.825 2.148 2.148 0 0 0 2.801.969 2.363 2.363 0 0 0 .981-3.002 2.224 2.224 0 0 0-3.014-.686M260.106 501.587l-.958-4.161 51.417-11.252s2.613.496 2.719 2.234l-53.178 13.179Z" fill="#E0E0E0"/><path d="M282.692 478.905c0 .26-1.182.673-2.364 1.808s-1.536 2.364-1.796 2.364-.213-1.631 1.182-2.979c1.394-1.347 2.978-1.442 2.978-1.193ZM288.816 479.957c.119.236-.91.933-1.548 2.245s-.626 2.518-.887 2.565c-.26.048-.768-1.383 0-2.99.769-1.608 2.376-2.069 2.435-1.82ZM293.509 485.938c-.224.118-.886-1.111-.532-2.683.355-1.572 1.442-2.364 1.596-2.234.154.13-.425 1.123-.685 2.423-.26 1.3-.142 2.411-.379 2.494ZM280.802 472.723c0 .26-1.324.165-2.778.602-1.453.438-2.494 1.182-2.683.958-.189-.225.709-1.371 2.364-1.856 1.655-.484 3.18.059 3.097.296ZM250.732 355.776s12.482-.875 15.166 9.81c3.711 14.811 20.094 103.331 20.094 103.331l-36.891 7.092-19.455-86.381-34.952-5.685-14.421-5.733s8.144-8.676 25-14.054c11.489-3.652 45.459-8.38 45.459-8.38Z" fill="#263238"/><path d="M229.764 391.898a27.681 27.681 0 0 1 4.385-5.355 28.625 28.625 0 0 1 5.91-3.605 12.237 12.237 0 0 0-6.288 3.156 14.966 14.966 0 0 0-3.204 3.877 5.166 5.166 0 0 0-.803 1.927Z" fill="#455A64"/><path d="M237.802 374.369s-.272.13-.686.449c-.592.458-1.145.964-1.655 1.513a21.134 21.134 0 0 0-5.815 13.297 13.584 13.584 0 0 0 0 2.246c.003.278.051.553.142.816.106 0 0-1.182.26-3.026.275-2.403.9-4.752 1.855-6.974a25.102 25.102 0 0 1 3.925-6.064c1.182-1.43 2.045-2.186 1.974-2.257Z" fill="#455A64"/><path d="M267.565 374.356s0 .154.118.461c.118.308.165.769.283 1.348.249 1.182.603 2.967 1.076 5.236.91 4.586 2.234 11.253 3.901 19.621l13.333 67.8v.284l-.272.059-36.902 7.092-.284.059-.059-.284c-.189-.863-.402-1.785-.615-2.719-7.151-31.914-13.711-61.133-18.77-83.685l.189.177-36.701-6.075-10.047-1.702-2.612-.461-.887-.178s.308 0 .899.119l2.624.39 10.07 1.572 36.725 5.91h.154v.153l18.912 83.662c.213.934.425 1.856.614 2.719l-.342-.225 36.902-7.092-.225.331c-5.307-27.446-9.881-51.086-13.12-67.894-1.596-8.38-2.872-15.047-3.747-19.645-.426-2.281-.756-4.042-.981-5.26-.106-.579-.177-1.028-.236-1.347v-.426Z" fill="#455A64"/><path d="m187.684 264.844-14.325-7.009-2.766-3.605-5.166 8.924-28.025-16.004v6.075s-23.238 9.385-26.571 12.411c-4.078 3.724 3.971 67.741 3.971 67.741s-4.054 49.786-2.565 59.691a279.02 279.02 0 0 1 32.824-7.187c14.894-2.045 33.676-7.458 33.676-7.458l15.507-9.657-6.56-103.922Z" fill="#0760A1"/><path d="M165.427 263.154a4.994 4.994 0 0 1-.922-.26l-2.541-.898.225-.107c-.603 2.128-1.383 4.929-2.294 8.156l-.106.367-.307-.213a303.652 303.652 0 0 1-6.324-4.397 300.195 300.195 0 0 1-11.229-8.381 121.146 121.146 0 0 1-3.31-2.671 8.646 8.646 0 0 1-1.181-1.04c.462.241.898.53 1.3.863l3.416 2.517c2.884 2.128 6.879 5.059 11.335 8.274l6.276 4.421-.413.142 2.482-8.097.059-.189.166.071 2.482 1.04c.312.093.611.228.886.402ZM173.359 257.835a18.082 18.082 0 0 1-1.182 3.038 375.273 375.273 0 0 1-3.215 7.163c-.166.342-.32.685-.473 1.028l-.449.957-.119-1.063c-.319-3.133-.614-5.91-.898-7.636l.307.083a10.608 10.608 0 0 1-1.631 1.56 9.36 9.36 0 0 1 1.371-1.797l.225-.26.083.343a71.795 71.795 0 0 1 1.182 7.647l-.556-.094c.154-.343.307-.686.473-1.028a320.458 320.458 0 0 1 3.357-7.092 17.29 17.29 0 0 1 1.525-2.849ZM167.507 337.963c-.165 0-.827-16.016-1.477-35.779-.65-19.763-1.04-35.791-.875-35.791.166 0 .816 16.004 1.466 35.779.65 19.775 1.04 35.791.886 35.791ZM191.467 328.318l-.414.212a8.572 8.572 0 0 1-1.253.438 12.896 12.896 0 0 1-4.882.425 14.65 14.65 0 0 1-6.832-2.446 13.882 13.882 0 0 1-5.319-7.092 27.934 27.934 0 0 1-1.3-8.795c0-2.73.142-5.177.178-7.222.035-2.044 0-3.699-.107-4.846a13.833 13.833 0 0 1-.13-1.773c.059.145.103.295.13.449.071.296.142.733.225 1.301.204 1.615.303 3.241.295 4.869 0 2.069-.082 4.516 0 7.211a27.86 27.86 0 0 0 1.324 8.605 13.505 13.505 0 0 0 5.059 6.832 14.649 14.649 0 0 0 6.572 2.482c1.578.188 3.175.112 4.728-.225 1.17-.236 1.702-.496 1.726-.425ZM189.883 297.432a70.384 70.384 0 0 1-9.137.296 70.384 70.384 0 0 1-9.137-.296 70.383 70.383 0 0 1 9.137-.295c3.049-.1 6.101-.001 9.137.295Z" fill="#263238"/><path d="M189.303 304.075a61.894 61.894 0 0 1-8.653.307c-2.891.1-5.786-.003-8.664-.307a65.617 65.617 0 0 1 8.664-.295 65.445 65.445 0 0 1 8.653.295Z" fill="#263238"/><path d="M200.142 281.581c-1.253-9.597-12.458-16.737-12.458-16.737l1.619 52.15 15.992.307s-3.912-26.11-5.153-35.72Z" fill="#0760A1"/><path d="M189.729 290.955c.054.277.082.558.083.839 0 .603.071 1.395.118 2.364.094 2.14.236 5.118.402 8.783.331 7.411.863 17.659 1.513 28.959.65 11.299 1.324 21.547 1.891 28.959.284 3.64.52 6.619.685 8.758.083.993.142 1.785.201 2.364.029.279.029.56 0 .839a3.951 3.951 0 0 1-.141-.815c-.083-.603-.19-1.395-.308-2.364-.248-2.069-.555-5.059-.886-8.759-.662-7.387-1.395-17.623-2.057-28.947-.662-11.324-1.111-21.56-1.347-28.983a430.677 430.677 0 0 1-.201-8.794v-2.364c0-.28.016-.56.047-.839ZM214.256 428.918c0 .153-24.916.295-55.648.295-30.732 0-55.661-.142-55.661-.295 0-.154 24.917-.296 55.661-.296 30.743 0 55.648.13 55.648.296ZM102.567 368.27c.166 0 .296 13.451.296 30.022 0 16.572-.13 30.035-.296 30.035-.165 0-.307-13.439-.307-30.035 0-16.595.142-30.022.307-30.022Z" fill="#263238"/><path d="m87.853 368.092 56.239.674a1.443 1.443 0 0 1 1.064.524 1.444 1.444 0 0 1 .319 1.142l-8.427 70.27h13.203l6.808-77.35a4.534 4.534 0 0 0-4.338-5.083l-65.707-.39.839 10.213Z" fill="#455A64"/><path d="M136.539 368.506c0 .165-9.456.295-21.11.295-11.655 0-21.11-.13-21.11-.295 0-.166 9.455-.296 21.11-.296 11.654 0 21.11.142 21.11.296ZM118.337 357.596c0 .165-5.638.295-12.589.295-6.95 0-12.588-.177-12.588-.295s5.638-.296 12.588-.296c6.951 0 12.589.142 12.589.296Z" fill="#263238"/><path d="M189.812 357.088a2.187 2.187 0 0 1-1.347-3.913 28.077 28.077 0 0 1 16.311-5.91c9.456-.331 14.551 3.286 17.175 6.241a2.19 2.19 0 0 1-.466 3.285 2.196 2.196 0 0 1-1.189.344l-30.484-.047Z" fill="#E0E0E0"/><path d="M189.812 357.088c.257-.053.519-.072.78-.059l2.258-.059 8.274-.06h18.64c.291.025.584.025.875 0a1.903 1.903 0 0 0 1.394-2.541 5.428 5.428 0 0 0-1.182-1.406c-.468-.45-.961-.872-1.477-1.265a19.028 19.028 0 0 0-6.891-3.263 27.77 27.77 0 0 0-7.092-.78 28.36 28.36 0 0 0-11.82 2.672 30.069 30.069 0 0 0-4.066 2.364 6.26 6.26 0 0 0-1.442 1.182 2.09 2.09 0 0 0-.296 1.465 2.149 2.149 0 0 0 1.289 1.62c.46.177.744.153.744.201a1.641 1.641 0 0 1-.792-.083 2.28 2.28 0 0 1-1.182-3.357 5.926 5.926 0 0 1 1.478-1.324 27.734 27.734 0 0 1 4.078-2.447 29.316 29.316 0 0 1 19.266-2.092 19.878 19.878 0 0 1 7.092 3.357c.537.412 1.05.854 1.537 1.324.236.236.473.473.697.721.259.256.464.562.603.898.131.341.186.706.162 1.069a2.508 2.508 0 0 1-2.006 2.288c-.33.034-.663.034-.993 0h-6.323l-12.305-.118-8.274-.118-2.258-.071a6.036 6.036 0 0 1-.768-.118Z" fill="#263238"/><path d="M222.588 355.587c0 .165-7.777.307-17.363.307-9.586 0-17.352-.142-17.352-.307 0-.166 7.766-.308 17.352-.308s17.363.13 17.363.308ZM209.315 347.301a23.05 23.05 0 0 0-1.667 3.77 21.167 21.167 0 0 0-.331 4.114 6.967 6.967 0 0 1 1.998-7.884Z" fill="#263238"/><path d="M218.854 355.953a11.175 11.175 0 0 0-5.497-7.884c0-.071.603 0 1.431.497a8.147 8.147 0 0 1 2.706 2.47 8.014 8.014 0 0 1 1.383 3.392 2.764 2.764 0 0 1-.023 1.525Z" fill="#263238"/><path d="M101.622 310.99s-5.614 29.55-5.91 33.592c-.614 7.494 3.854 14.917 11.289 15.461 5.035.366 63.828-7.908 63.828-7.908l-1.738-14.302-46.807-3.759 2.364-19.467-23.026-3.617Z" fill="#936760"/><path d="m141.35 335.623 27.729 2.21 20.023-1.832 9.799-.118 6.277 6.134a4.12 4.12 0 0 1 1.182 3.345l-.473 4.894-1.076.555.65 2.364a2.74 2.74 0 0 1-.957 2.896l-6.147-7.376 3.263 8.003a4.387 4.387 0 0 1-3.428 0c-2.281-.698-6.194-10-6.194-10l-3.652-1.489 5.91 10.46s.189.804-1.655 1.029c-1.844.224-9.089-8.688-9.089-8.688a16.83 16.83 0 0 1-7.601 3.475l-12.316 1.501-22.245-17.363Z" fill="#936760"/><path d="M201.656 356.745a16.343 16.343 0 0 1-1.265-2.671 333.62 333.62 0 0 1-2.719-6.62 4.972 4.972 0 0 0-2.115-2.967c-1.017-.567-2.045-1.004-2.861-1.418a15.086 15.086 0 0 1-2.6-1.395c.95.277 1.875.633 2.766 1.064.839.378 1.832.745 2.931 1.336a5.357 5.357 0 0 1 2.364 3.227 272.5 272.5 0 0 1 2.553 6.631c.404.905.721 1.847.946 2.813ZM204.611 350.882a19.57 19.57 0 0 1-1.265-2.364 59.495 59.495 0 0 0-3.251-5.496l-1.028-1.513c-.165-.236-.343-.473-.496-.709l-.249-.343s-.082-.142-.106-.142h-.083c-.957-.354-1.95-.567-2.73-.78a13.914 13.914 0 0 1-2.565-.733c.889.033 1.773.16 2.636.378.964.164 1.915.393 2.848.686h.107l.165.106c.056.057.104.12.142.19l.248.33.509.71 1.052 1.513a38.06 38.06 0 0 1 3.144 5.626c.417.803.727 1.658.922 2.541Z" fill="#6F4C47"/><path d="m161.81 353.388.39-.083 1.182-.177 4.456-.638 7.092-.969a15.834 15.834 0 0 0 8.57-3.605l.153-.119.119.142a98.02 98.02 0 0 0 4.657 5.248 27.29 27.29 0 0 0 2.777 2.565c.242.203.504.381.78.532.232.17.518.25.804.225.309-.036.612-.115.899-.237.271-.106.472-.366.437-.484v.059l-5.981-10.449-.378-.65.697.283 3.653 1.478h.106v.095a57.104 57.104 0 0 0 3.357 6.701 10.853 10.853 0 0 0 2.364 2.955 4.474 4.474 0 0 0 1.752.466c.61.035 1.22-.055 1.794-.265l-.107.343-3.274-7.99-.697-1.714 1.182 1.418 4.48 5.367 1.666 2.009h-.39a2.467 2.467 0 0 0 .922-2.281c-.189-.863-.484-1.82-.709-2.719l-.059-.224.201-.107 1.064-.567-.142.224c.142-1.489.283-2.978.437-4.444a3.989 3.989 0 0 0-1.288-3.747l-6.076-5.91.201.071-9.81.106-20.023 1.785-20.272-1.714-5.52-.496-1.43-.142-.496-.071c.165-.018.331-.018.496 0l1.442.083 5.52.39 20.295 1.489 20.011-1.891 9.811-.13h.118l.071.083a1704.73 1704.73 0 0 0 6.087 5.91 4.37 4.37 0 0 1 1.277 1.891c.246.742.307 1.534.177 2.305-.142 1.466-.284 2.955-.425 4.444v.154l-.13.071-1.076.567.142-.331c.248.934.52 1.785.733 2.79a3.057 3.057 0 0 1-1.182 2.813l-.225.177-.177-.213-1.667-2.009-4.48-5.366.485-.296 3.262 8.002.095.237-.201.106a4.035 4.035 0 0 1-2.128.343 5.82 5.82 0 0 1-1.016-.166l-.497-.13-.52-.26a11.301 11.301 0 0 1-2.482-3.132 60.042 60.042 0 0 1-3.38-6.773l.141.142-3.64-1.489.319-.367 5.91 10.461c-.603 1.974-2.837 1.312-3.676.437a29.69 29.69 0 0 1-2.801-2.624c-1.714-1.808-3.251-3.546-4.646-5.307h.272a16.067 16.067 0 0 1-8.782 3.617l-7.092.875-4.468.532-1.182.13-.331.165Z" fill="#6F4C47"/><path d="m93.42 318.389 20.756 1.335 16.702-1.051-.698-28.238-6.643-32.316s-16.489 3.936-20.496 18.037c-2.966 10.425-9.621 42.233-9.621 42.233Z" fill="#0760A1"/><path d="M126.195 274.773c.222.465.392.953.509 1.454.374 1.352.666 2.726.874 4.114.568 4.577.888 9.182.958 13.794.212 5.39.366 10.271.449 13.805 0 1.679 0 3.085.083 4.185a7.049 7.049 0 0 1-.06 1.536 8.393 8.393 0 0 1-.165-1.525c-.071-1.099-.154-2.494-.26-4.184-.189-3.546-.414-8.404-.627-13.794-.212-5.39-.307-10.271-.78-13.77a48.089 48.089 0 0 0-.685-4.102 10.09 10.09 0 0 1-.296-1.513Z" fill="#263238"/><path d="M233.05 357.3h75.507v-4.137H233.05v4.137Z" fill="#E0E0E0"/><path d="M273.403 357.064c-.166 0-.296-.839-.296-1.88 0-1.04.13-1.867.296-1.867.165 0 .295.839.295 1.867 0 1.029-.13 1.88-.295 1.88Z" fill="#263238"/><path d="M220.426 363.21h9.184v2.022l-20.094 194.545h-10.721l21.631-196.567Z" fill="#455A64"/><path d="M220.462 363.222s0 .355-.095 1.017c-.094.662-.165 1.678-.295 2.978-.284 2.613-.686 6.454-1.182 11.395-1.076 9.893-2.613 24.207-4.527 41.937-3.866 35.46-9.232 84.549-15.201 139.264l-.307-.343h10.72l-.307.272c9.456-91.57 17.553-169.026 20.307-194.522v-2.01l.083.083h-9.196H229.729v2.104c-2.542 25.413-10.449 102.834-19.905 194.439v.272h-11.336v-.343c6.076-54.785 11.537-103.957 15.473-139.476 1.985-17.73 3.546-31.985 4.728-41.854.555-4.906.993-8.724 1.288-11.324l.343-2.919c.059-.651.142-.97.142-.97ZM382.645 363.21h9.184v2.081l-19.137 195.916h-9.432l19.385-197.997Z" fill="#263238"/><path d="m182.07 365.243 327.249.355.118-8.64H182.07v8.285Z" fill="#455A64"/><path d="M463.28 363.21h-9.184v2.081l19.136 195.916h9.421L463.28 363.21Z" fill="#455A64"/><path d="M463.694 365.787s0 .343.083 1.017c.083.673.154 1.654.272 2.943.236 2.6.603 6.406 1.064 11.312.945 9.822 2.304 24.041 3.995 41.653 3.416 35.188 8.155 83.922 13.427 138.294l.248-.272h-9.456l.249.225c-8.936-90.707-16.548-167.549-19.019-193.068v-2.068l-.071.071H463.67 454.486h.012v2.151c2.459 25.531 9.894 102.385 18.664 193.103v.236h9.941v-.283a373943.21 373943.21 0 0 1-13.641-138.424c-1.761-17.577-3.167-31.772-4.149-41.571-.496-4.882-.874-8.676-1.182-11.253-.13-1.276-.224-2.246-.295-2.919a29.09 29.09 0 0 0-.142-1.147Z" fill="#263238"/><path d="M330.672 363.967h9.184v2.068l-19.125 195.172h-9.432l19.373-197.24Z" fill="#455A64"/><path d="M330.258 366.52s0 .355-.083 1.017c-.083.661-.142 1.654-.26 2.943-.248 2.576-.603 6.371-1.076 11.264-.933 9.787-2.305 23.947-3.995 41.488-3.416 35.058-8.144 83.639-13.368 137.786l-.248-.284h9.456l-.26.225c8.935-90.364 16.548-166.91 19.018-192.335v-2.08l.071.071h-9.184 9.255v2.151c-2.471 25.436-9.905 101.995-18.676 192.382v.225h-10.023v-.284c5.366-54.171 10.177-102.834 13.652-137.892 1.749-17.517 3.168-31.654 4.149-41.429.484-4.858.874-8.629 1.182-11.206.13-1.264.236-2.234.307-2.895l.083-1.147Z" fill="#263238"/><path d="m331.31 333.259 107.491-1.856a3.38 3.38 0 0 0 3.452-3.239v-92.562a3.394 3.394 0 0 0-3.546-3.239H331.251a3.385 3.385 0 0 0-2.448.88 3.383 3.383 0 0 0-1.098 2.359v94.418a3.392 3.392 0 0 0 3.605 3.239Z" fill="#E0E0E0"/><path d="M402.727 307.313v49.644h-54.278a3.238 3.238 0 0 1 3.369-3.096h23.77v-46.548h27.139Z" fill="#E0E0E0"/><path d="M348.449 356.958c-.005-.41.088-.816.272-1.182a3.801 3.801 0 0 1 3.085-2.033c5.059-.059 13.581-.119 23.77-.13l-.307.283v-9.349c0-9.905.071-18.912.095-25.461 0-3.203.07-5.815.094-7.718 0-.851 0-1.548.071-2.092a2.692 2.692 0 0 1 .059-.733c.054.24.078.487.071.733 0 .544 0 1.241.059 2.092 0 1.903 0 4.515.095 7.718 0 6.584.059 15.556.094 25.461v9.621h-.307c-10.189 0-18.711-.071-23.77-.142a3.678 3.678 0 0 0-2.955 1.797 8.333 8.333 0 0 0-.426 1.135ZM381.934 356.957c-.177 0-.319-10.85-.319-24.219 0-13.368.142-24.231.319-24.231.178 0 .32 10.851.32 24.231 0 13.381-.142 24.219-.32 24.219ZM336.038 332.348c-.177 0-.319-22.458-.319-50.034s.142-50.034.319-50.034c.177 0 .319 22.458.319 50.034s-.142 50.034-.319 50.034ZM402.727 308.507c.166 0 .296 10.851.296 24.219 0 13.369-.13 24.231-.296 24.231-.165 0-.295-10.838-.295-24.231 0-13.392.13-24.219.295-24.219Z" fill="#263238"/><path d="M386.697 279.986a5.912 5.912 0 0 0 10.089 4.179 5.91 5.91 0 1 0-10.089-4.179Z" fill="#fff"/><path d="M359.938 365.35c-.41-2.783-.41-5.61 0-8.392.41 2.782.41 5.609 0 8.392Z" fill="#263238"/><path d="M183.299 365.302c0-.165 65.979-.295 147.348-.295 81.369 0 147.36.13 147.36.295 0 .166-65.968.296-147.36.296-81.393 0-147.348-.142-147.348-.296Z" fill="#263238"/></svg>