<svg width="40" height="40" viewBox="0 0 40 40" fill="none" xmlns="http://www.w3.org/2000/svg">
<g id="fi-rs-building" clip-path="url(#clip0_296_928)">
<path id="Vector" d="M6.50781 21.6391H11.3887V24.893H6.50781V21.6391ZM14.6426 24.893H19.5234V21.6391H14.6426V24.893ZM6.50781 31.4009H11.3887V28.1469H6.50781V31.4009ZM14.6426 31.4009H19.5234V28.1469H14.6426V31.4009ZM6.50781 11.8774H11.3887V8.62353H6.50781V11.8774ZM14.6426 11.8774H19.5234V8.62353H14.6426V11.8774ZM6.50781 18.3852H11.3887V15.1313H6.50781V18.3852ZM14.6426 18.3852H19.5234V15.1313H14.6426V18.3852ZM39.0468 13.5044V39.5356H0V5.36963C0 4.07514 0.514231 2.83368 1.42957 1.91834C2.34491 1.003 3.58637 0.48877 4.88086 0.48877L21.1504 0.48877C22.4449 0.48877 23.6863 1.003 24.6017 1.91834C25.517 2.83368 26.0312 4.07514 26.0312 5.36963V8.62353H34.166C35.4605 8.62353 36.7019 9.13776 37.6173 10.0531C38.5326 10.9684 39.0468 12.2099 39.0468 13.5044ZM22.7773 5.36963C22.7773 4.93813 22.6059 4.52431 22.3008 4.2192C21.9957 3.91408 21.5819 3.74267 21.1504 3.74267H4.88086C4.44936 3.74267 4.03554 3.91408 3.73043 4.2192C3.42531 4.52431 3.2539 4.93813 3.2539 5.36963V36.2817H22.7773V5.36963ZM35.7929 13.5044C35.7929 13.0729 35.6215 12.6591 35.3164 12.354C35.0113 12.0488 34.5975 11.8774 34.166 11.8774H26.0312V36.2817H35.7929V13.5044ZM29.2851 24.893H32.539V21.6391H29.2851V24.893ZM29.2851 31.4009H32.539V28.1469H29.2851V31.4009ZM29.2851 18.3852H32.539V15.1313H29.2851V18.3852Z" fill="#0760A1"/>
</g>
<defs>
<clipPath id="clip0_296_928">
<rect width="39.0468" height="39.0468" fill="white" transform="translate(0 0.48877)"/>
</clipPath>
</defs>
</svg>
