<svg width="40" height="40" viewBox="0 0 40 40" fill="none" xmlns="http://www.w3.org/2000/svg">
<g id="01 align center">
<path id="Vector" d="M19.5234 0.928833C14.7172 0.943372 10.0843 2.72587 6.50781 5.93659V0.928833H3.2539V9.29625C3.25477 10.0973 3.57335 10.8652 4.13976 11.4316C4.70617 11.998 5.47413 12.3166 6.27515 12.3175H14.6426V9.06359H7.9379C10.5821 6.38493 14.0744 4.70759 17.8182 4.31814C21.5619 3.9287 25.3247 4.85134 28.4636 6.92841C31.6026 9.00547 33.9229 12.1081 35.028 15.7061C36.1332 19.3041 35.9547 23.1742 34.523 26.6552C33.0913 30.1363 30.4953 33.0121 27.1785 34.7914C23.8617 36.5707 20.03 37.1431 16.338 36.4107C12.646 35.6783 9.3229 33.6866 6.93647 30.7759C4.55004 27.8652 3.24839 24.2162 3.2539 20.4523H0C0 24.3136 1.14503 28.0883 3.29029 31.2989C5.43555 34.5095 8.48469 37.0119 12.0521 38.4895C15.6196 39.9672 19.5451 40.3539 23.3323 39.6005C27.1194 38.8472 30.5982 36.9878 33.3286 34.2574C36.059 31.527 37.9184 28.0483 38.6717 24.2611C39.425 20.4739 39.0384 16.5484 37.5607 12.981C36.083 9.41353 33.5807 6.36438 30.3701 4.21912C27.1594 2.07386 23.3848 0.928833 19.5234 0.928833V0.928833Z" fill="#0760A1"/>
<path id="Vector_2" d="M17.8965 12.3164V21.1247L23.254 26.4823L25.5545 24.1818L21.1504 19.7776V12.3164H17.8965Z" fill="#0760A1"/>
</g>
</svg>
