<svg width="40" height="40" viewBox="0 0 40 40" fill="none" xmlns="http://www.w3.org/2000/svg">
<g id="fi-rs-car" clip-path="url(#clip0_296_929)">
<path id="Vector" d="M33.2191 5.37607C32.8753 4.43584 32.2514 3.62366 31.4316 3.04909C30.6118 2.47452 29.6355 2.16519 28.6344 2.16284H10.4125C9.41139 2.16519 8.43508 2.47452 7.61526 3.04909C6.79544 3.62366 6.17155 4.43584 5.82775 5.37607L2.33957 14.9653C0.78861 19.2207 -0.00326136 23.7153 1.00951e-05 28.2445V31.448H3.25391V37.9558H13.0156V31.448H26.0312V37.9558H35.793V31.448H39.0469V28.2445C39.0501 23.7153 38.2583 19.2207 36.7073 14.9653L33.2191 5.37607ZM8.8848 6.48728C8.99892 6.17371 9.2067 5.90281 9.47998 5.71131C9.75326 5.51982 10.0788 5.41698 10.4125 5.41675H28.6344C28.9681 5.41698 29.2936 5.51982 29.5669 5.71131C29.8402 5.90281 30.0479 6.17371 30.1621 6.48728L33.6503 16.0863C33.9317 16.8624 34.166 17.6514 34.3921 18.4405H4.65472C4.88087 17.6514 5.11515 16.8624 5.39661 16.0863L8.8848 6.48728ZM9.76172 34.7019H6.50782V31.448H9.76172V34.7019ZM32.5391 34.7019H29.2851V31.448H32.5391V34.7019ZM3.25391 28.1941C3.26121 26.0103 3.46925 23.8319 3.87541 21.6863H6.50782V23.3132C6.50782 23.7447 6.67923 24.1585 6.98434 24.4636C7.28945 24.7688 7.70328 24.9402 8.13477 24.9402C8.56627 24.9402 8.98009 24.7688 9.2852 24.4636C9.59031 24.1585 9.76172 23.7447 9.76172 23.3132V21.6863H29.2851V23.3132C29.2851 23.7447 29.4566 24.1585 29.7617 24.4636C30.0668 24.7688 30.4806 24.9402 30.9121 24.9402C31.3436 24.9402 31.7574 24.7688 32.0625 24.4636C32.3676 24.1585 32.5391 23.7447 32.5391 23.3132V21.6863H35.1715C35.5776 23.8319 35.7857 26.0103 35.793 28.1941H3.25391Z" fill="#0760A1"/>
</g>
<defs>
<clipPath id="clip0_296_929">
<rect width="39.0468" height="39.0468" fill="white" transform="translate(0 0.535645)"/>
</clipPath>
</defs>
</svg>
