<svg width="40" height="27" viewBox="0 0 40 27" fill="none" xmlns="http://www.w3.org/2000/svg">
<g id="01 align center">
<path id="Vector" d="M34.166 0.234253H3.2539V11.6229H0V14.8768H3.2539V26.2655H34.166C35.4605 26.2655 36.7019 25.7513 37.6173 24.8359C38.5326 23.9206 39.0468 22.6791 39.0468 21.3846V5.11511C39.0468 3.82063 38.5326 2.57916 37.6173 1.66382C36.7019 0.748485 35.4605 0.234253 34.166 0.234253ZM6.50781 14.8768H8.13476V11.6229H6.50781V3.48816H11.3887V23.0116H6.50781V14.8768ZM35.7929 21.3846C35.7929 21.8161 35.6215 22.2299 35.3164 22.5351C35.0113 22.8402 34.5975 23.0116 34.166 23.0116H14.6426V3.48816H34.166C34.5975 3.48816 35.0113 3.65957 35.3164 3.96468C35.6215 4.26979 35.7929 4.68361 35.7929 5.11511V21.3846Z" fill="#0760A1"/>
</g>
</svg>
