<svg width="54" height="49" viewBox="0 0 54 49" fill="none" xmlns="http://www.w3.org/2000/svg">
<g id="Group 39">
<g id="Vector 11">
<path d="M1.9375 43.392V23.0857C1.9375 20.7969 3.7929 18.9415 6.08165 18.9415H16.8564C19.1452 18.9415 21.0006 20.7969 21.0006 23.0857V43.392C21.0006 45.6807 19.1452 47.5361 16.8564 47.5361H6.08164C3.7929 47.5361 1.9375 45.6807 1.9375 43.392Z" fill="#0760A1"/>
<path d="M33.433 43.392V5.68028C33.433 3.39153 35.2884 1.53613 37.5771 1.53613H48.3519C50.6407 1.53613 52.4961 3.39153 52.4961 5.68027V43.392C52.4961 45.6807 50.6407 47.5361 48.3519 47.5361H37.5771C35.2884 47.5361 33.433 45.6807 33.433 43.392Z" fill="#0760A1"/>
<path d="M17.0636 9.41001H5.87444C3.70013 9.41001 1.9375 7.64738 1.9375 5.47307C1.9375 3.29876 3.70013 1.53613 5.87444 1.53613H17.0636C19.2379 1.53613 21.0006 3.29876 21.0006 5.47307C21.0006 7.64738 19.2379 9.41001 17.0636 9.41001Z" fill="#0760A1"/>
<path d="M1.9375 43.392V23.0857C1.9375 20.7969 3.7929 18.9415 6.08165 18.9415H16.8564C19.1452 18.9415 21.0006 20.7969 21.0006 23.0857V43.392C21.0006 45.6807 19.1452 47.5361 16.8564 47.5361H6.08164C3.7929 47.5361 1.9375 45.6807 1.9375 43.392Z" stroke="#0760A1" stroke-width="2.48649"/>
<path d="M33.433 43.392V5.68028C33.433 3.39153 35.2884 1.53613 37.5771 1.53613H48.3519C50.6407 1.53613 52.4961 3.39153 52.4961 5.68027V43.392C52.4961 45.6807 50.6407 47.5361 48.3519 47.5361H37.5771C35.2884 47.5361 33.433 45.6807 33.433 43.392Z" stroke="#0760A1" stroke-width="2.48649"/>
<path d="M17.0636 9.41001H5.87444C3.70013 9.41001 1.9375 7.64738 1.9375 5.47307C1.9375 3.29876 3.70013 1.53613 5.87444 1.53613H17.0636C19.2379 1.53613 21.0006 3.29876 21.0006 5.47307C21.0006 7.64738 19.2379 9.41001 17.0636 9.41001Z" stroke="#0760A1" stroke-width="2.48649"/>
</g>
</g>
</svg>
