<svg width="36" height="36" viewBox="0 0 36 36" fill="none" xmlns="http://www.w3.org/2000/svg">
<g id="fi-rr-user" clip-path="url(#clip0_384_1468)">
<path id="Vector" d="M17.916 18.0361C19.6466 18.0361 21.3383 17.523 22.7773 16.5615C24.2162 15.6 25.3377 14.2335 26 12.6346C26.6622 11.0358 26.8355 9.27643 26.4979 7.5791C26.1603 5.88176 25.3269 4.32266 24.1032 3.09895C22.8795 1.87524 21.3204 1.04189 19.6231 0.704266C17.9257 0.366645 16.1664 0.539924 14.5675 1.20219C12.9687 1.86446 11.6021 2.98597 10.6407 4.4249C9.67919 5.86383 9.16602 7.55555 9.16602 9.28614C9.16833 11.6061 10.0909 13.8303 11.7314 15.4708C13.3718 17.1112 15.5961 18.0338 17.916 18.0361ZM17.916 3.4528C19.0697 3.4528 20.1976 3.79492 21.1568 4.4359C22.1161 5.07687 22.8638 5.98791 23.3053 7.05382C23.7468 8.11972 23.8623 9.29261 23.6373 10.4242C23.4122 11.5557 22.8566 12.5951 22.0408 13.4109C21.225 14.2267 20.1856 14.7823 19.054 15.0074C17.9225 15.2325 16.7496 15.1169 15.6837 14.6754C14.6178 14.2339 13.7068 13.4862 13.0658 12.527C12.4248 11.5677 12.0827 10.4399 12.0827 9.28614C12.0827 7.73904 12.6973 6.25531 13.7912 5.16135C14.8852 4.06738 16.3689 3.4528 17.916 3.4528Z" fill="#0760A1"/>
<path id="Vector_2" d="M17.916 20.9541C14.4362 20.958 11.1001 22.342 8.6395 24.8026C6.17892 27.2632 4.79488 30.5993 4.79102 34.0791C4.79102 34.4659 4.94466 34.8368 5.21815 35.1103C5.49164 35.3838 5.86257 35.5374 6.24935 35.5374C6.63612 35.5374 7.00706 35.3838 7.28055 35.1103C7.55404 34.8368 7.70768 34.4659 7.70768 34.0791C7.70768 31.3717 8.7832 28.7752 10.6976 26.8607C12.6121 24.9463 15.2086 23.8708 17.916 23.8708C20.6234 23.8708 23.22 24.9463 25.1344 26.8607C27.0488 28.7752 28.1243 31.3717 28.1243 34.0791C28.1243 34.4659 28.278 34.8368 28.5515 35.1103C28.825 35.3838 29.1959 35.5374 29.5827 35.5374C29.9695 35.5374 30.3404 35.3838 30.6139 35.1103C30.8874 34.8368 31.041 34.4659 31.041 34.0791C31.0372 30.5993 29.6531 27.2632 27.1925 24.8026C24.732 22.342 21.3958 20.958 17.916 20.9541Z" fill="#0760A1"/>
</g>
<defs>
<clipPath id="clip0_384_1468">
<rect width="35" height="35" fill="white" transform="translate(0.416016 0.536133)"/>
</clipPath>
</defs>
</svg>
