<svg width="40" height="36" viewBox="0 0 40 36" fill="none" xmlns="http://www.w3.org/2000/svg">
<g id="fi-rs-building" clip-path="url(#clip0_384_1449)">
<path id="Vector" d="M6.92382 19.4945H11.8047V22.4111H6.92382V19.4945ZM15.0586 22.4111H19.9394V19.4945H15.0586V22.4111ZM6.92382 28.2445H11.8047V25.3278H6.92382V28.2445ZM15.0586 28.2445H19.9394V25.3278H15.0586V28.2445ZM6.92382 10.7445H11.8047V7.8278H6.92382V10.7445ZM15.0586 10.7445H19.9394V7.8278H15.0586V10.7445ZM6.92382 16.5778H11.8047V13.6611H6.92382V16.5778ZM15.0586 16.5778H19.9394V13.6611H15.0586V16.5778ZM39.4629 12.2028V35.5361H0.416016V4.91113C0.416016 3.75081 0.930247 2.63801 1.84558 1.81754C2.76092 0.997069 4.00239 0.536133 5.29687 0.536133L21.5664 0.536133C22.8609 0.536133 24.1023 0.997069 25.0177 1.81754C25.933 2.63801 26.4472 3.75081 26.4472 4.91113V7.8278H34.582C35.8765 7.8278 37.118 8.28874 38.0333 9.10921C38.9486 9.92968 39.4629 11.0425 39.4629 12.2028ZM23.1933 4.91113C23.1933 4.52436 23.0219 4.15343 22.7168 3.87994C22.4117 3.60644 21.9979 3.4528 21.5664 3.4528H5.29687C4.86538 3.4528 4.45155 3.60644 4.14644 3.87994C3.84133 4.15343 3.66992 4.52436 3.66992 4.91113V32.6195H23.1933V4.91113ZM36.209 12.2028C36.209 11.816 36.0375 11.4451 35.7324 11.1716C35.4273 10.8981 35.0135 10.7445 34.582 10.7445H26.4472V32.6195H36.209V12.2028ZM29.7011 22.4111H32.9551V19.4945H29.7011V22.4111ZM29.7011 28.2445H32.9551V25.3278H29.7011V28.2445ZM29.7011 16.5778H32.9551V13.6611H29.7011V16.5778Z" fill="#0760A1"/>
</g>
<defs>
<clipPath id="clip0_384_1449">
<rect width="39.0468" height="35" fill="white" transform="translate(0.416016 0.536133)"/>
</clipPath>
</defs>
</svg>
