<svg width="36" height="36" viewBox="0 0 36 36" fill="none" xmlns="http://www.w3.org/2000/svg">
<g id="fi-rs-cursor" clip-path="url(#clip0_384_1452)">
<path id="Vector" d="M19.7804 35.5052L13.6554 23.4886L6.25 30.0175V3.48025C6.24998 2.93672 6.40184 2.40399 6.68845 1.94217C6.97506 1.48034 7.38501 1.10779 7.87207 0.866535C8.35912 0.625281 8.9039 0.524924 9.44496 0.576785C9.98601 0.628645 10.5018 0.830659 10.9342 1.16004L31.2123 18.6717L21.5625 19.7421L27.6073 31.5984L19.7804 35.5052ZM14.5392 18.8146L21.0638 31.5984L23.6727 30.2946L17.0417 17.3067L24.2429 16.509L9.09667 3.42337L9.15792 23.563L14.5392 18.8146Z" fill="#0760A1"/>
</g>
<defs>
<clipPath id="clip0_384_1452">
<rect width="35" height="35" fill="white" transform="translate(0.416016 0.536133)"/>
</clipPath>
</defs>
</svg>
