<svg width="36" height="36" viewBox="0 0 36 36" fill="none" xmlns="http://www.w3.org/2000/svg">
<g id="01 align center">
<path id="Vector" d="M6.69971 8.71481L4.45825 6.84961C3.15807 8.40861 2.1404 10.1829 1.45117 12.0923L4.1943 13.084C4.76823 11.4926 5.61615 10.0139 6.69971 8.71481Z" fill="#0760A1"/>
<path id="Vector_2" d="M3.33218 18.0364C3.33224 17.1947 3.40445 16.3545 3.54802 15.5251L0.673643 15.0264C0.327536 17.025 0.327536 19.0682 0.673643 21.0668L3.54656 20.5651C3.40259 19.7299 3.33087 18.8839 3.33218 18.0364Z" fill="#0760A1"/>
<path id="Vector_3" d="M12.8213 4.36671L11.8019 1.63379C9.89942 2.34319 8.13553 3.37962 6.58984 4.69629L8.48568 6.91879C9.77144 5.82238 11.2386 4.95873 12.8213 4.36671Z" fill="#0760A1"/>
<path id="Vector_4" d="M6.60547 31.3895C8.15314 32.7038 9.91848 33.7378 11.8219 34.4447L12.8428 31.7103C11.2565 31.1219 9.78569 30.2601 8.49692 29.1641L6.60547 31.3895Z" fill="#0760A1"/>
<path id="Vector_5" d="M4.20651 23.0078L1.46484 24.0009C2.1571 25.9093 3.17666 27.6824 4.47776 29.2407L6.71047 27.3711C5.62862 26.0732 4.78129 24.5967 4.20651 23.0078Z" fill="#0760A1"/>
<path id="Vector_6" d="M17.916 0.536133C16.8541 0.537942 15.7944 0.63556 14.75 0.8278L15.275 3.6978C16.1461 3.53634 17.0301 3.45434 17.916 3.4528V32.6195C17.0303 32.6199 16.1463 32.5398 15.275 32.3803L14.75 35.2445C17.2734 35.706 19.8674 35.6077 22.3486 34.9563C24.8298 34.305 27.1376 33.1166 29.1089 31.4751C31.0802 29.8336 32.6669 27.7791 33.7567 25.4569C34.8466 23.1347 35.4131 20.6014 35.416 18.0361C35.411 13.3964 33.5657 8.94811 30.2849 5.66731C27.0041 2.38651 22.5558 0.541151 17.916 0.536133V0.536133Z" fill="#0760A1"/>
</g>
</svg>
